<?xml version="1.0" encoding="UTF-8" standalone="no"?>
<svg
   xmlns:dc="http://purl.org/dc/elements/1.1/"
   xmlns:cc="http://creativecommons.org/ns#"
   xmlns:rdf="http://www.w3.org/1999/02/22-rdf-syntax-ns#"
   xmlns:svg="http://www.w3.org/2000/svg"
   xmlns="http://www.w3.org/2000/svg"
   xmlns:sodipodi="http://sodipodi.sourceforge.net/DTD/sodipodi-0.dtd"
   xmlns:inkscape="http://www.inkscape.org/namespaces/inkscape"
   id="logo"
   version="1.1"
   viewBox="0 0 49.241436 81.637962"
   sodipodi:docname="rLoopIcon.svg"
   inkscape:version="0.92.2 5c3e80d, 2017-08-06"
   width="49.241436"
   height="81.637962">
  <metadata
     id="metadata4163">
    <rdf:RDF>
      <cc:Work
         rdf:about="">
        <dc:format>image/svg+xml</dc:format>
        <dc:type
           rdf:resource="http://purl.org/dc/dcmitype/StillImage" />
        <dc:title></dc:title>
      </cc:Work>
    </rdf:RDF>
  </metadata>
  <defs
     id="defs4161" />
  <sodipodi:namedview
     pagecolor="#ffffff"
     bordercolor="#666666"
     borderopacity="1"
     objecttolerance="10"
     gridtolerance="10"
     guidetolerance="10"
     inkscape:pageopacity="0"
     inkscape:pageshadow="2"
     inkscape:window-width="1680"
     inkscape:window-height="959"
     id="namedview4159"
     showgrid="false"
     inkscape:zoom="0.76777251"
     inkscape:cx="-116.6026"
     inkscape:cy="42.307828"
     inkscape:window-x="-2"
     inkscape:window-y="0"
     inkscape:window-maximized="0"
     inkscape:current-layer="layer6" />
  <g
     transform="matrix(1.3333,0,0,-1.3333,-196.52043,94.526973)"
     id="g4156" />
  <g
     inkscape:groupmode="layer"
     id="layer6"
     inkscape:label="logo"
     style="display:inline"
     transform="translate(-160.68142,-28.51303)">
    <g
       transform="matrix(1.3333,0,0,-1.3333,185.30214,28.51303)"
       id="g4138">
      <path
         d="m 0,0 c -10.164,0 -18.466,-8.302 -18.466,-18.466 v -39.848 c 0,-1.611 1.305,-2.916 2.916,-2.916 1.61,0 2.915,1.305 2.915,2.916 0,14.578 17.43,21.002 22.559,24.291 5.129,3.288 8.542,9.04 8.542,15.557 C 18.466,-8.302 10.164,0 0,0 m 0,-31.101 c -7.013,0 -12.635,5.622 -12.635,12.635 0,7.012 5.622,12.635 12.635,12.635 7.013,0 12.635,-5.623 12.635,-12.635 0,-7.013 -5.622,-12.635 -12.635,-12.635"
         id="path4136"
         inkscape:connector-curvature="0"
         style="fill:#ffffff" />
    </g>
    <g
       transform="matrix(1.3333,0,0,-1.3333,185.30214,44.063308)"
       id="g4146">
      <path
         d="m 0,0 c 3.757,0 6.803,-3.046 6.803,-6.803 0,-3.758 -3.046,-6.804 -6.803,-6.804 -3.758,0 -6.803,3.046 -6.803,6.804 C -6.803,-3.046 -3.758,0 0,0"
         id="path4144"
         inkscape:connector-curvature="0"
         style="fill:#ffffff" />
    </g>
    <g
       transform="matrix(1.3333,0,0,-1.3333,185.12881,59.608253)"
       id="g4150">
      <path
         d="M 0,0 C 2.726,0 4.943,2.217 4.943,4.943 4.943,7.668 2.726,9.885 0,9.885 -2.726,9.885 -4.943,7.668 -4.943,4.943 -4.943,2.217 -2.726,0 0,0"
         id="path4148"
         inkscape:connector-curvature="0"
         style="fill:#00fcff" />
    </g>
    <g
       transform="matrix(1.3333,0,0,-1.3333,185.12881,59.608253)"
       id="g4154">
      <path
         d="M 0,0 C 2.726,0 4.943,2.217 4.943,4.943 4.943,7.668 2.726,9.885 0,9.885 -2.726,9.885 -4.943,7.668 -4.943,4.943 -4.943,2.217 -2.726,0 0,0 Z"
         id="path4152"
         inkscape:connector-curvature="0"
         style="fill:none;stroke:#00fcff;stroke-width:4.5" />
    </g>
  </g>
</svg>
