<?xml version="1.0" encoding="UTF-8" standalone="no"?>
<!-- Created with Inkscape (http://www.inkscape.org/) -->

<svg
   xmlns:dc="http://purl.org/dc/elements/1.1/"
   xmlns:cc="http://creativecommons.org/ns#"
   xmlns:rdf="http://www.w3.org/1999/02/22-rdf-syntax-ns#"
   xmlns:svg="http://www.w3.org/2000/svg"
   xmlns="http://www.w3.org/2000/svg"
   xmlns:sodipodi="http://sodipodi.sourceforge.net/DTD/sodipodi-0.dtd"
   xmlns:inkscape="http://www.inkscape.org/namespaces/inkscape"
   version="1.1"
   id="svg11552"
   xml:space="preserve"
   width="1136.9041"
   height="144.65334"
   viewBox="0 0 1136.9041 144.65333"
   sodipodi:docname="hyperloop.svg"
   inkscape:version="0.92.2 5c3e80d, 2017-08-06"><metadata
     id="metadata11558"><rdf:RDF><cc:Work
         rdf:about=""><dc:format>image/svg+xml</dc:format><dc:type
           rdf:resource="http://purl.org/dc/dcmitype/StillImage" /><dc:title></dc:title></cc:Work></rdf:RDF></metadata><defs
     id="defs11556"><clipPath
       clipPathUnits="userSpaceOnUse"
       id="clipPath11568"><path
         d="M 0,0 H 1366 V 768 H 0 Z"
         id="path11566"
         inkscape:connector-curvature="0" /></clipPath><clipPath
       clipPathUnits="userSpaceOnUse"
       id="clipPath11616"><path
         d="M -1,802.765 H 1378.85 V -34.765 H -1 Z"
         id="path11614"
         inkscape:connector-curvature="0" /></clipPath><clipPath
       clipPathUnits="userSpaceOnUse"
       id="clipPath11620"><path
         d="M 0,-1.643 H 1367.37 V 769.905 H 0 Z"
         id="path11618"
         inkscape:connector-curvature="0" /></clipPath><clipPath
       clipPathUnits="userSpaceOnUse"
       id="clipPath11666"><path
         d="M 0,0 H 1366 V 768 H 0 Z"
         id="path11664"
         inkscape:connector-curvature="0" /></clipPath><clipPath
       clipPathUnits="userSpaceOnUse"
       id="clipPath11754"><path
         d="M 0,0 H 1366 V 768 H 0 Z"
         id="path11752"
         inkscape:connector-curvature="0" /></clipPath><clipPath
       clipPathUnits="userSpaceOnUse"
       id="clipPath11782"><path
         d="M 0,0 H 1366 V 768 H 0 Z"
         id="path11780"
         inkscape:connector-curvature="0" /></clipPath><clipPath
       clipPathUnits="userSpaceOnUse"
       id="clipPath11802"><path
         d="m 1046,703 h 18.11 V 674.047 H 1046 Z"
         id="path11800"
         inkscape:connector-curvature="0" /></clipPath><clipPath
       clipPathUnits="userSpaceOnUse"
       id="clipPath11820"><path
         d="m 1085.98,695.012 h 20.04 v -14.024 h -20.04 z"
         id="path11818"
         inkscape:connector-curvature="0" /></clipPath><clipPath
       clipPathUnits="userSpaceOnUse"
       id="clipPath11838"><path
         d="m 1126,701 h 15.69 V 676.09 H 1126 Z"
         id="path11836"
         inkscape:connector-curvature="0" /></clipPath></defs><sodipodi:namedview
     pagecolor="#ffffff"
     bordercolor="#666666"
     borderopacity="1"
     objecttolerance="10"
     gridtolerance="10"
     guidetolerance="10"
     inkscape:pageopacity="0"
     inkscape:pageshadow="2"
     inkscape:window-width="1682"
     inkscape:window-height="925"
     id="namedview11554"
     showgrid="false"
     inkscape:zoom="0.47209474"
     inkscape:cx="510.68082"
     inkscape:cy="-97.415318"
     inkscape:window-x="1"
     inkscape:window-y="38"
     inkscape:window-maximized="0"
     inkscape:current-layer="layer3" /><g
     inkscape:groupmode="layer"
     id="layer3"
     inkscape:label="logo"
     transform="translate(-177.14789,-0.10776676)"
     style="display:inline"><path
       transform="matrix(1.3333333,0,0,-1.3333333,343.23999,152.3205)"
       d="m -123.56908,11.233552 c 0,-1.9439996 1.62,-3.5639996 3.564,-3.5639996 2.106,0 3.726,1.62 3.726,3.5639996 0,2.106 -1.62,3.726 -3.726,3.726 -1.944,0 -3.564,-1.62 -3.564,-3.726 z m 64.800003,0 c 0,-1.9439996 1.62,-3.5639996 3.564,-3.5639996 2.106,0 3.726,1.62 3.726,3.5639996 0,2.106 -1.62,3.726 -3.726,3.726 -1.944,0 -3.564,-1.62 -3.564,-3.726 z m -64.800003,16.2 c 0,-1.944 1.62,-3.564 3.564,-3.564 2.106,0 3.726,1.62 3.726,3.564 0,2.106 -1.62,3.726 -3.726,3.726 -1.944,0 -3.564,-1.62 -3.564,-3.726 z m 64.800003,0 c 0,-1.944 1.62,-3.564 3.564,-3.564 2.106,0 3.726,1.62 3.726,3.564 0,2.106 -1.62,3.726 -3.726,3.726 -1.944,0 -3.564,-1.62 -3.564,-3.726 z m -64.800003,16.2 c 0,-1.944 1.62,-3.564 3.564,-3.564 2.106,0 3.726,1.62 3.726,3.564 0,2.106 -1.62,3.726 -3.726,3.726 -1.944,0 -3.564,-1.62 -3.564,-3.726 z m 64.800003,0 c 0,-1.944 1.62,-3.564 3.564,-3.564 2.106,0 3.726,1.62 3.726,3.564 0,2.106 -1.62,3.726 -3.726,3.726 -1.944,0 -3.564,-1.62 -3.564,-3.726 z m -64.800003,16.2 c 0,-1.944 1.62,-3.564 3.564,-3.564 2.106,0 3.726,1.62 3.726,3.564 0,2.106 -1.62,3.726 -3.726,3.726 -1.944,0 -3.564,-1.62 -3.564,-3.726 z m 64.800003,0 c 0,-1.944 1.62,-3.564 3.564,-3.564 2.106,0 3.726,1.62 3.726,3.564 0,2.106 -1.62,3.726 -3.726,3.726 -1.944,0 -3.564,-1.62 -3.564,-3.726 z m -64.800003,16.2 c 0,-1.944 1.62,-3.564 3.564,-3.564 2.106,0 3.726,1.62 3.726,3.564 0,2.106 -1.62,3.726 -3.726,3.726 -1.944,0 -3.564,-1.62 -3.564,-3.726 z m 64.800003,0 c 0,-1.944 1.62,-3.564 3.564,-3.564 2.106,0 3.726,1.62 3.726,3.564 0,2.106 -1.62,3.726 -3.726,3.726 -1.944,0 -3.564,-1.62 -3.564,-3.726 z m -64.800003,16.2 c 0,-1.944 1.62,-3.564 3.564,-3.564 2.106,0 3.726,1.62 3.726,3.564 0,2.106 -1.62,3.726 -3.726,3.726 -1.944,0 -3.564,-1.62 -3.564,-3.726 z m 64.800003,0 c 0,-1.944 1.62,-3.564 3.564,-3.564 2.106,0 3.726,1.62 3.726,3.564 0,2.106 -1.62,3.726 -3.726,3.726 -1.944,0 -3.564,-1.62 -3.564,-3.726 z m -64.800003,16.199998 c 0,-1.944 1.62,-3.564 3.564,-3.564 2.106,0 3.726,1.62 3.726,3.564 0,2.106 -1.62,3.726 -3.726,3.726 -1.944,0 -3.564,-1.62 -3.564,-3.726 z m 64.800003,0 c 0,-1.944 1.62,-3.564 3.564,-3.564 2.106,0 3.726,1.62 3.726,3.564 0,2.106 -1.62,3.726 -3.726,3.726 -1.944,0 -3.564,-1.62 -3.564,-3.726 z M -107.36908,59.833552 c 0,-1.944 1.62,-3.564 3.564,-3.564 2.106,0 3.726,1.62 3.726,3.564 0,2.106 -1.62,3.726 -3.726,3.726 -1.944,0 -3.564,-1.62 -3.564,-3.726 z m 16.200003,0 c 0,-1.944 1.62,-3.564 3.564,-3.564 2.106,0 3.726,1.62 3.726,3.564 0,2.106 -1.62,3.726 -3.726,3.726 -1.944,0 -3.564,-1.62 -3.564,-3.726 z m 16.2,0 c 0,-1.944 1.62,-3.564 3.564,-3.564 2.106,0 3.726,1.62 3.726,3.564 0,2.106 -1.62,3.726 -3.726,3.726 -1.944,0 -3.564,-1.62 -3.564,-3.726 z"
       style="fill:#ffffff;stroke:#ffffff;stroke-width:2;stroke-linecap:butt;stroke-linejoin:miter;stroke-miterlimit:18.01399994;stroke-dasharray:none;stroke-opacity:1;fill-opacity:1"
       id="path11638"
       inkscape:connector-curvature="0" /><path
       transform="matrix(1.3333333,0,0,-1.3333333,0,636.69462)"
       inkscape:connector-curvature="0"
       id="path11642"
       style="fill:#ffffff;stroke:#ffffff;stroke-width:2;stroke-linecap:butt;stroke-linejoin:miter;stroke-miterlimit:18.01399994;stroke-dasharray:none;stroke-opacity:1;fill-opacity:1"
       d="m 263.45942,374.51415 c 0,-1.944 1.62,-3.564 3.564,-3.564 2.106,0 3.726,1.62 3.726,3.564 0,2.106 -1.62,3.726 -3.726,3.726 -1.944,0 -3.564,-1.62 -3.564,-3.726 z m 0,32.4 c 0,-1.944 1.62,-3.564 3.564,-3.564 2.106,0 3.726,1.62 3.726,3.564 0,2.106 -1.62,3.726 -3.726,3.726 -1.944,0 -3.564,-1.62 -3.564,-3.726 z m -16.2,16.2 c 0,-1.944 1.62,-3.564 3.564,-3.564 2.106,0 3.726,1.62 3.726,3.564 0,2.106 -1.62,3.726 -3.726,3.726 -1.944,0 -3.564,-1.62 -3.564,-3.726 z m 32.4,0 c 0,-1.944 1.62,-3.564 3.564,-3.564 2.106,0 3.726,1.62 3.726,3.564 0,2.106 -1.62,3.726 -3.726,3.726 -1.944,0 -3.564,-1.62 -3.564,-3.726 z m -48.6,16.2 c 0,-1.944 1.62,-3.564 3.564,-3.564 2.106,0 3.726,1.62 3.726,3.564 0,2.106 -1.62,3.726 -3.726,3.726 -1.944,0 -3.564,-1.62 -3.564,-3.726 z m 64.8,0 c 0,-1.944 1.62,-3.564 3.564,-3.564 2.106,0 3.726,1.62 3.726,3.564 0,2.106 -1.62,3.726 -3.726,3.726 -1.944,0 -3.564,-1.62 -3.564,-3.726 z m -64.8,16.2 c 0,-1.944 1.62,-3.564 3.564,-3.564 2.106,0 3.726,1.62 3.726,3.564 0,2.106 -1.62,3.726 -3.726,3.726 -1.944,0 -3.564,-1.62 -3.564,-3.726 z m 64.8,0 c 0,-1.944 1.62,-3.564 3.564,-3.564 2.106,0 3.726,1.62 3.726,3.564 0,2.106 -1.62,3.726 -3.726,3.726 -1.944,0 -3.564,-1.62 -3.564,-3.726 z m -64.8,16.2 c 0,-1.944 1.62,-3.564 3.564,-3.564 2.106,0 3.726,1.62 3.726,3.564 0,2.106 -1.62,3.726 -3.726,3.726 -1.944,0 -3.564,-1.62 -3.564,-3.726 z m 64.8,0 c 0,-1.944 1.62,-3.564 3.564,-3.564 2.106,0 3.726,1.62 3.726,3.564 0,2.106 -1.62,3.726 -3.726,3.726 -1.944,0 -3.564,-1.62 -3.564,-3.726 z m -32.4,-81 c 0,-1.944 1.62,-3.564 3.564,-3.564 2.106,0 3.726,1.62 3.726,3.564 0,2.106 -1.62,3.726 -3.726,3.726 -1.944,0 -3.564,-1.62 -3.564,-3.726 z" /><path
       transform="matrix(1.3333333,0,0,-1.3333333,0,636.69462)"
       inkscape:connector-curvature="0"
       id="path11646"
       style="fill:#ffffff;stroke:#ffffff;stroke-width:2;stroke-linecap:butt;stroke-linejoin:miter;stroke-miterlimit:18.01399994;stroke-dasharray:none;stroke-opacity:1;fill-opacity:1"
       d="m 328.25792,374.51415 c 0,-1.944 1.62,-3.564 3.564,-3.564 2.106,0 3.726,1.62 3.726,3.564 0,2.106 -1.62,3.726 -3.726,3.726 -1.944,0 -3.564,-1.62 -3.564,-3.726 z m 0,16.2 c 0,-1.944 1.62,-3.564 3.564,-3.564 2.106,0 3.726,1.62 3.726,3.564 0,2.106 -1.62,3.726 -3.726,3.726 -1.944,0 -3.564,-1.62 -3.564,-3.726 z m 0,16.2 c 0,-1.944 1.62,-3.564 3.564,-3.564 2.106,0 3.726,1.62 3.726,3.564 0,2.106 -1.62,3.726 -3.726,3.726 -1.944,0 -3.564,-1.62 -3.564,-3.726 z m 16.2,0 c 0,-1.944 1.62,-3.564 3.564,-3.564 2.106,0 3.726,1.62 3.726,3.564 0,2.106 -1.62,3.726 -3.726,3.726 -1.944,0 -3.564,-1.62 -3.564,-3.726 z m 16.2,0 c 0,-1.944 1.62,-3.564 3.564,-3.564 2.106,0 3.726,1.62 3.726,3.564 0,2.106 -1.62,3.726 -3.726,3.726 -1.944,0 -3.564,-1.62 -3.564,-3.726 z m 16.2,0 c 0,-1.944 1.62,-3.564 3.564,-3.564 2.106,0 3.726,1.62 3.726,3.564 0,2.106 -1.62,3.726 -3.726,3.726 -1.944,0 -3.564,-1.62 -3.564,-3.726 z m -48.6,16.2 c 0,-1.944 1.62,-3.564 3.564,-3.564 2.106,0 3.726,1.62 3.726,3.564 0,2.106 -1.62,3.726 -3.726,3.726 -1.944,0 -3.564,-1.62 -3.564,-3.726 z m 64.8,0 c 0,-1.944 1.62,-3.564 3.564,-3.564 2.106,0 3.726,1.62 3.726,3.564 0,2.106 -1.62,3.726 -3.726,3.726 -1.944,0 -3.564,-1.62 -3.564,-3.726 z m -64.8,16.2 c 0,-1.944 1.62,-3.564 3.564,-3.564 2.106,0 3.726,1.62 3.726,3.564 0,2.106 -1.62,3.726 -3.726,3.726 -1.944,0 -3.564,-1.62 -3.564,-3.726 z m 64.8,0 c 0,-1.944 1.62,-3.564 3.564,-3.564 2.106,0 3.726,1.62 3.726,3.564 0,2.106 -1.62,3.726 -3.726,3.726 -1.944,0 -3.564,-1.62 -3.564,-3.726 z m -64.8,16.2 c 0,-1.944 1.62,-3.564 3.564,-3.564 2.106,0 3.726,1.62 3.726,3.564 0,2.106 -1.62,3.726 -3.726,3.726 -1.944,0 -3.564,-1.62 -3.564,-3.726 z m 64.8,0 c 0,-1.944 1.62,-3.564 3.564,-3.564 2.106,0 3.726,1.62 3.726,3.564 0,2.106 -1.62,3.726 -3.726,3.726 -1.944,0 -3.564,-1.62 -3.564,-3.726 z m -64.8,16.2 c 0,-1.944 1.62,-3.564 3.564,-3.564 2.106,0 3.726,1.62 3.726,3.564 0,2.106 -1.62,3.726 -3.726,3.726 -1.944,0 -3.564,-1.62 -3.564,-3.726 z m 16.2,0 c 0,-1.944 1.62,-3.564 3.564,-3.564 2.106,0 3.726,1.62 3.726,3.564 0,2.106 -1.62,3.726 -3.726,3.726 -1.944,0 -3.564,-1.62 -3.564,-3.726 z m 16.2,0 c 0,-1.944 1.62,-3.564 3.564,-3.564 2.106,0 3.726,1.62 3.726,3.564 0,2.106 -1.62,3.726 -3.726,3.726 -1.944,0 -3.564,-1.62 -3.564,-3.726 z m 16.2,0 c 0,-1.944 1.62,-3.564 3.564,-3.564 2.106,0 3.726,1.62 3.726,3.564 0,2.106 -1.62,3.726 -3.726,3.726 -1.944,0 -3.564,-1.62 -3.564,-3.726 z" /><path
       transform="matrix(1.3333333,0,0,-1.3333333,0,636.69462)"
       inkscape:connector-curvature="0"
       id="path11650"
       style="fill:#ffffff;stroke:#ffffff;stroke-width:2;stroke-linecap:butt;stroke-linejoin:miter;stroke-miterlimit:18.01399994;stroke-dasharray:none;stroke-opacity:1;fill-opacity:1"
       d="m 425.45642,374.51415 c 0,-1.944 1.62,-3.564 3.564,-3.564 2.106,0 3.726,1.62 3.726,3.564 0,2.106 -1.62,3.726 -3.726,3.726 -1.944,0 -3.564,-1.62 -3.564,-3.726 z m 16.2,0 c 0,-1.944 1.62,-3.564 3.564,-3.564 2.106,0 3.726,1.62 3.726,3.564 0,2.106 -1.62,3.726 -3.726,3.726 -1.944,0 -3.564,-1.62 -3.564,-3.726 z m 16.2,0 c 0,-1.944 1.62,-3.564 3.564,-3.564 2.106,0 3.726,1.62 3.726,3.564 0,2.106 -1.62,3.726 -3.726,3.726 -1.944,0 -3.564,-1.62 -3.564,-3.726 z m 16.2,0 c 0,-1.944 1.62,-3.564 3.564,-3.564 2.106,0 3.726,1.62 3.726,3.564 0,2.106 -1.62,3.726 -3.726,3.726 -1.944,0 -3.564,-1.62 -3.564,-3.726 z m 16.2,0 c 0,-1.944 1.62,-3.564 3.564,-3.564 2.106,0 3.726,1.62 3.726,3.564 0,2.106 -1.62,3.726 -3.726,3.726 -1.944,0 -3.564,-1.62 -3.564,-3.726 z m -64.8,16.2 c 0,-1.944 1.62,-3.564 3.564,-3.564 2.106,0 3.726,1.62 3.726,3.564 0,2.106 -1.62,3.726 -3.726,3.726 -1.944,0 -3.564,-1.62 -3.564,-3.726 z m 0,16.2 c 0,-1.944 1.62,-3.564 3.564,-3.564 2.106,0 3.726,1.62 3.726,3.564 0,2.106 -1.62,3.726 -3.726,3.726 -1.944,0 -3.564,-1.62 -3.564,-3.726 z m 0,16.2 c 0,-1.944 1.62,-3.564 3.564,-3.564 2.106,0 3.726,1.62 3.726,3.564 0,2.106 -1.62,3.726 -3.726,3.726 -1.944,0 -3.564,-1.62 -3.564,-3.726 z m 16.2,0 c 0,-1.944 1.62,-3.564 3.564,-3.564 2.106,0 3.726,1.62 3.726,3.564 0,2.106 -1.62,3.726 -3.726,3.726 -1.944,0 -3.564,-1.62 -3.564,-3.726 z m 16.2,0 c 0,-1.944 1.62,-3.564 3.564,-3.564 2.106,0 3.726,1.62 3.726,3.564 0,2.106 -1.62,3.726 -3.726,3.726 -1.944,0 -3.564,-1.62 -3.564,-3.726 z m 16.2,0 c 0,-1.944 1.62,-3.564 3.564,-3.564 2.106,0 3.726,1.62 3.726,3.564 0,2.106 -1.62,3.726 -3.726,3.726 -1.944,0 -3.564,-1.62 -3.564,-3.726 z m -48.6,16.2 c 0,-1.944 1.62,-3.564 3.564,-3.564 2.106,0 3.726,1.62 3.726,3.564 0,2.106 -1.62,3.726 -3.726,3.726 -1.944,0 -3.564,-1.62 -3.564,-3.726 z m 0,16.2 c 0,-1.944 1.62,-3.564 3.564,-3.564 2.106,0 3.726,1.62 3.726,3.564 0,2.106 -1.62,3.726 -3.726,3.726 -1.944,0 -3.564,-1.62 -3.564,-3.726 z m 0,16.2 c 0,-1.944 1.62,-3.564 3.564,-3.564 2.106,0 3.726,1.62 3.726,3.564 0,2.106 -1.62,3.726 -3.726,3.726 -1.944,0 -3.564,-1.62 -3.564,-3.726 z m 16.2,0 c 0,-1.944 1.62,-3.564 3.564,-3.564 2.106,0 3.726,1.62 3.726,3.564 0,2.106 -1.62,3.726 -3.726,3.726 -1.944,0 -3.564,-1.62 -3.564,-3.726 z m 16.2,0 c 0,-1.944 1.62,-3.564 3.564,-3.564 2.106,0 3.726,1.62 3.726,3.564 0,2.106 -1.62,3.726 -3.726,3.726 -1.944,0 -3.564,-1.62 -3.564,-3.726 z m 16.2,0 c 0,-1.944 1.62,-3.564 3.564,-3.564 2.106,0 3.726,1.62 3.726,3.564 0,2.106 -1.62,3.726 -3.726,3.726 -1.944,0 -3.564,-1.62 -3.564,-3.726 z m 16.2,0 c 0,-1.944 1.62,-3.564 3.564,-3.564 2.106,0 3.726,1.62 3.726,3.564 0,2.106 -1.62,3.726 -3.726,3.726 -1.944,0 -3.564,-1.62 -3.564,-3.726 z" /><g
       id="g11668"
       transform="matrix(1.3333333,0,0,-1.3333333,696.87334,137.34243)"
       style="fill:#00f7fa;fill-opacity:1"><path
         d="M 0,0 C 0,-1.944 1.62,-3.564 3.564,-3.564 5.67,-3.564 7.29,-1.944 7.29,0 7.29,2.106 5.67,3.726 3.564,3.726 1.62,3.726 0,2.106 0,0 Z m 64.8,0 c 0,-1.944 1.62,-3.564 3.564,-3.564 2.106,0 3.726,1.62 3.726,3.564 0,2.106 -1.62,3.726 -3.726,3.726 C 66.42,3.726 64.8,2.106 64.8,0 Z M 0,16.2 c 0,-1.944 1.62,-3.564 3.564,-3.564 2.106,0 3.726,1.62 3.726,3.564 0,2.106 -1.62,3.726 -3.726,3.726 C 1.62,19.926 0,18.306 0,16.2 Z m 64.8,0 c 0,-1.944 1.62,-3.564 3.564,-3.564 2.106,0 3.726,1.62 3.726,3.564 0,2.106 -1.62,3.726 -3.726,3.726 -1.944,0 -3.564,-1.62 -3.564,-3.726 z M 0,32.4 c 0,-1.944 1.62,-3.564 3.564,-3.564 2.106,0 3.726,1.62 3.726,3.564 0,2.106 -1.62,3.726 -3.726,3.726 C 1.62,36.126 0,34.506 0,32.4 Z m 48.6,0 c 0,-1.944 1.62,-3.564 3.564,-3.564 2.106,0 3.726,1.62 3.726,3.564 0,2.106 -1.62,3.726 -3.726,3.726 -1.944,0 -3.564,-1.62 -3.564,-3.726 z M 0,48.6 c 0,-1.944 1.62,-3.564 3.564,-3.564 2.106,0 3.726,1.62 3.726,3.564 0,2.106 -1.62,3.726 -3.726,3.726 C 1.62,52.326 0,50.706 0,48.6 Z m 16.2,0 c 0,-1.944 1.62,-3.564 3.564,-3.564 2.106,0 3.726,1.62 3.726,3.564 0,2.106 -1.62,3.726 -3.726,3.726 -1.944,0 -3.564,-1.62 -3.564,-3.726 z m 16.2,0 c 0,-1.944 1.62,-3.564 3.564,-3.564 2.106,0 3.726,1.62 3.726,3.564 0,2.106 -1.62,3.726 -3.726,3.726 -1.944,0 -3.564,-1.62 -3.564,-3.726 z m 16.2,0 c 0,-1.944 1.62,-3.564 3.564,-3.564 2.106,0 3.726,1.62 3.726,3.564 0,2.106 -1.62,3.726 -3.726,3.726 -1.944,0 -3.564,-1.62 -3.564,-3.726 z M 0,64.8 c 0,-1.944 1.62,-3.564 3.564,-3.564 2.106,0 3.726,1.62 3.726,3.564 0,2.106 -1.62,3.726 -3.726,3.726 C 1.62,68.526 0,66.906 0,64.8 Z m 64.8,0 c 0,-1.944 1.62,-3.564 3.564,-3.564 2.106,0 3.726,1.62 3.726,3.564 0,2.106 -1.62,3.726 -3.726,3.726 -1.944,0 -3.564,-1.62 -3.564,-3.726 z M 0,81 c 0,-1.944 1.62,-3.564 3.564,-3.564 2.106,0 3.726,1.62 3.726,3.564 0,2.106 -1.62,3.726 -3.726,3.726 C 1.62,84.726 0,83.106 0,81 Z m 64.8,0 c 0,-1.944 1.62,-3.564 3.564,-3.564 2.106,0 3.726,1.62 3.726,3.564 0,2.106 -1.62,3.726 -3.726,3.726 C 66.42,84.726 64.8,83.106 64.8,81 Z M 0,97.2 c 0,-1.944 1.62,-3.564 3.564,-3.564 2.106,0 3.726,1.62 3.726,3.564 0,2.106 -1.62,3.726 -3.726,3.726 C 1.62,100.926 0,99.306 0,97.2 Z m 16.2,0 c 0,-1.944 1.62,-3.564 3.564,-3.564 2.106,0 3.726,1.62 3.726,3.564 0,2.106 -1.62,3.726 -3.726,3.726 -1.944,0 -3.564,-1.62 -3.564,-3.726 z m 16.2,0 c 0,-1.944 1.62,-3.564 3.564,-3.564 2.106,0 3.726,1.62 3.726,3.564 0,2.106 -1.62,3.726 -3.726,3.726 -1.944,0 -3.564,-1.62 -3.564,-3.726 z m 16.2,0 c 0,-1.944 1.62,-3.564 3.564,-3.564 2.106,0 3.726,1.62 3.726,3.564 0,2.106 -1.62,3.726 -3.726,3.726 -1.944,0 -3.564,-1.62 -3.564,-3.726 z"
         style="fill:#00f7fa;stroke:#00fcff;stroke-width:4;stroke-linecap:butt;stroke-linejoin:miter;stroke-miterlimit:4;stroke-dasharray:none;stroke-opacity:1;fill-opacity:1"
         id="path11670"
         inkscape:connector-curvature="0" /></g><g
       id="g11672"
       transform="matrix(1.3333333,0,0,-1.3333333,826.47134,137.34243)"
       style="fill:#00f7fa;fill-opacity:1"><path
         d="M 0,0 C 0,-1.944 1.62,-3.564 3.564,-3.564 5.67,-3.564 7.29,-1.944 7.29,0 7.29,2.106 5.67,3.726 3.564,3.726 1.62,3.726 0,2.106 0,0 Z m 16.2,0 c 0,-1.944 1.62,-3.564 3.564,-3.564 2.106,0 3.726,1.62 3.726,3.564 0,2.106 -1.62,3.726 -3.726,3.726 C 17.82,3.726 16.2,2.106 16.2,0 Z m 16.2,0 c 0,-1.944 1.62,-3.564 3.564,-3.564 2.106,0 3.726,1.62 3.726,3.564 0,2.106 -1.62,3.726 -3.726,3.726 C 34.02,3.726 32.4,2.106 32.4,0 Z m 16.2,0 c 0,-1.944 1.62,-3.564 3.564,-3.564 2.106,0 3.726,1.62 3.726,3.564 0,2.106 -1.62,3.726 -3.726,3.726 C 50.22,3.726 48.6,2.106 48.6,0 Z m 16.2,0 c 0,-1.944 1.62,-3.564 3.564,-3.564 2.106,0 3.726,1.62 3.726,3.564 0,2.106 -1.62,3.726 -3.726,3.726 C 66.42,3.726 64.8,2.106 64.8,0 Z M 0,16.2 c 0,-1.944 1.62,-3.564 3.564,-3.564 2.106,0 3.726,1.62 3.726,3.564 0,2.106 -1.62,3.726 -3.726,3.726 C 1.62,19.926 0,18.306 0,16.2 Z m 0,16.2 c 0,-1.944 1.62,-3.564 3.564,-3.564 2.106,0 3.726,1.62 3.726,3.564 0,2.106 -1.62,3.726 -3.726,3.726 C 1.62,36.126 0,34.506 0,32.4 Z m 0,16.2 c 0,-1.944 1.62,-3.564 3.564,-3.564 2.106,0 3.726,1.62 3.726,3.564 0,2.106 -1.62,3.726 -3.726,3.726 C 1.62,52.326 0,50.706 0,48.6 Z m 0,16.2 c 0,-1.944 1.62,-3.564 3.564,-3.564 2.106,0 3.726,1.62 3.726,3.564 0,2.106 -1.62,3.726 -3.726,3.726 C 1.62,68.526 0,66.906 0,64.8 Z M 0,81 c 0,-1.944 1.62,-3.564 3.564,-3.564 2.106,0 3.726,1.62 3.726,3.564 0,2.106 -1.62,3.726 -3.726,3.726 C 1.62,84.726 0,83.106 0,81 Z m 0,16.2 c 0,-1.944 1.62,-3.564 3.564,-3.564 2.106,0 3.726,1.62 3.726,3.564 0,2.106 -1.62,3.726 -3.726,3.726 C 1.62,100.926 0,99.306 0,97.2 Z"
         style="fill:#00f7fa;stroke:#00fcff;stroke-width:4;stroke-linecap:butt;stroke-linejoin:miter;stroke-miterlimit:4;stroke-dasharray:none;stroke-opacity:1;fill-opacity:1"
         id="path11674"
         inkscape:connector-curvature="0" /></g><g
       id="g11676"
       transform="matrix(1.3333333,0,0,-1.3333333,977.66934,137.34243)"
       style="fill:#00f7fa;fill-opacity:1"><path
         d="M 0,0 C 0,-1.944 1.62,-3.564 3.564,-3.564 5.67,-3.564 7.29,-1.944 7.29,0 7.29,2.106 5.67,3.726 3.564,3.726 1.62,3.726 0,2.106 0,0 Z m 16.2,0 c 0,-1.944 1.62,-3.564 3.564,-3.564 2.106,0 3.726,1.62 3.726,3.564 0,2.106 -1.62,3.726 -3.726,3.726 C 17.82,3.726 16.2,2.106 16.2,0 Z m 16.2,0 c 0,-1.944 1.62,-3.564 3.564,-3.564 2.106,0 3.726,1.62 3.726,3.564 0,2.106 -1.62,3.726 -3.726,3.726 C 34.02,3.726 32.4,2.106 32.4,0 Z m -48.6,16.2 c 0,-1.944 1.62,-3.564 3.564,-3.564 2.106,0 3.726,1.62 3.726,3.564 0,2.106 -1.62,3.726 -3.726,3.726 -1.944,0 -3.564,-1.62 -3.564,-3.726 z m 64.8,0 c 0,-1.944 1.62,-3.564 3.564,-3.564 2.106,0 3.726,1.62 3.726,3.564 0,2.106 -1.62,3.726 -3.726,3.726 -1.944,0 -3.564,-1.62 -3.564,-3.726 z m -64.8,16.2 c 0,-1.944 1.62,-3.564 3.564,-3.564 2.106,0 3.726,1.62 3.726,3.564 0,2.106 -1.62,3.726 -3.726,3.726 -1.944,0 -3.564,-1.62 -3.564,-3.726 z m 64.8,0 c 0,-1.944 1.62,-3.564 3.564,-3.564 2.106,0 3.726,1.62 3.726,3.564 0,2.106 -1.62,3.726 -3.726,3.726 -1.944,0 -3.564,-1.62 -3.564,-3.726 z m -64.8,16.2 c 0,-1.944 1.62,-3.564 3.564,-3.564 2.106,0 3.726,1.62 3.726,3.564 0,2.106 -1.62,3.726 -3.726,3.726 -1.944,0 -3.564,-1.62 -3.564,-3.726 z m 64.8,0 c 0,-1.944 1.62,-3.564 3.564,-3.564 2.106,0 3.726,1.62 3.726,3.564 0,2.106 -1.62,3.726 -3.726,3.726 -1.944,0 -3.564,-1.62 -3.564,-3.726 z m -64.8,16.2 c 0,-1.944 1.62,-3.564 3.564,-3.564 2.106,0 3.726,1.62 3.726,3.564 0,2.106 -1.62,3.726 -3.726,3.726 -1.944,0 -3.564,-1.62 -3.564,-3.726 z m 64.8,0 c 0,-1.944 1.62,-3.564 3.564,-3.564 2.106,0 3.726,1.62 3.726,3.564 0,2.106 -1.62,3.726 -3.726,3.726 -1.944,0 -3.564,-1.62 -3.564,-3.726 z M -16.2,81 c 0,-1.944 1.62,-3.564 3.564,-3.564 2.106,0 3.726,1.62 3.726,3.564 0,2.106 -1.62,3.726 -3.726,3.726 -1.944,0 -3.564,-1.62 -3.564,-3.726 z m 64.8,0 c 0,-1.944 1.62,-3.564 3.564,-3.564 2.106,0 3.726,1.62 3.726,3.564 0,2.106 -1.62,3.726 -3.726,3.726 C 50.22,84.726 48.6,83.106 48.6,81 Z M 0,97.2 c 0,-1.944 1.62,-3.564 3.564,-3.564 2.106,0 3.726,1.62 3.726,3.564 0,2.106 -1.62,3.726 -3.726,3.726 C 1.62,100.926 0,99.306 0,97.2 Z m 16.2,0 c 0,-1.944 1.62,-3.564 3.564,-3.564 2.106,0 3.726,1.62 3.726,3.564 0,2.106 -1.62,3.726 -3.726,3.726 -1.944,0 -3.564,-1.62 -3.564,-3.726 z m 16.2,0 c 0,-1.944 1.62,-3.564 3.564,-3.564 2.106,0 3.726,1.62 3.726,3.564 0,2.106 -1.62,3.726 -3.726,3.726 -1.944,0 -3.564,-1.62 -3.564,-3.726 z"
         style="fill:#00f7fa;stroke:#00fcff;stroke-width:4;stroke-linecap:butt;stroke-linejoin:miter;stroke-miterlimit:4;stroke-dasharray:none;stroke-opacity:1;fill-opacity:1"
         id="path11678"
         inkscape:connector-curvature="0" /></g><g
       id="g11680"
       transform="matrix(1.3333333,0,0,-1.3333333,1107.2675,137.34243)"
       style="fill:#00f7fa;fill-opacity:1"><path
         d="M 0,0 C 0,-1.944 1.62,-3.564 3.564,-3.564 5.67,-3.564 7.29,-1.944 7.29,0 7.29,2.106 5.67,3.726 3.564,3.726 1.62,3.726 0,2.106 0,0 Z m 16.2,0 c 0,-1.944 1.62,-3.564 3.564,-3.564 2.106,0 3.726,1.62 3.726,3.564 0,2.106 -1.62,3.726 -3.726,3.726 C 17.82,3.726 16.2,2.106 16.2,0 Z m 16.2,0 c 0,-1.944 1.62,-3.564 3.564,-3.564 2.106,0 3.726,1.62 3.726,3.564 0,2.106 -1.62,3.726 -3.726,3.726 C 34.02,3.726 32.4,2.106 32.4,0 Z m -48.6,16.2 c 0,-1.944 1.62,-3.564 3.564,-3.564 2.106,0 3.726,1.62 3.726,3.564 0,2.106 -1.62,3.726 -3.726,3.726 -1.944,0 -3.564,-1.62 -3.564,-3.726 z m 64.8,0 c 0,-1.944 1.62,-3.564 3.564,-3.564 2.106,0 3.726,1.62 3.726,3.564 0,2.106 -1.62,3.726 -3.726,3.726 -1.944,0 -3.564,-1.62 -3.564,-3.726 z m -64.8,16.2 c 0,-1.944 1.62,-3.564 3.564,-3.564 2.106,0 3.726,1.62 3.726,3.564 0,2.106 -1.62,3.726 -3.726,3.726 -1.944,0 -3.564,-1.62 -3.564,-3.726 z m 64.8,0 c 0,-1.944 1.62,-3.564 3.564,-3.564 2.106,0 3.726,1.62 3.726,3.564 0,2.106 -1.62,3.726 -3.726,3.726 -1.944,0 -3.564,-1.62 -3.564,-3.726 z m -64.8,16.2 c 0,-1.944 1.62,-3.564 3.564,-3.564 2.106,0 3.726,1.62 3.726,3.564 0,2.106 -1.62,3.726 -3.726,3.726 -1.944,0 -3.564,-1.62 -3.564,-3.726 z m 64.8,0 c 0,-1.944 1.62,-3.564 3.564,-3.564 2.106,0 3.726,1.62 3.726,3.564 0,2.106 -1.62,3.726 -3.726,3.726 -1.944,0 -3.564,-1.62 -3.564,-3.726 z m -64.8,16.2 c 0,-1.944 1.62,-3.564 3.564,-3.564 2.106,0 3.726,1.62 3.726,3.564 0,2.106 -1.62,3.726 -3.726,3.726 -1.944,0 -3.564,-1.62 -3.564,-3.726 z m 64.8,0 c 0,-1.944 1.62,-3.564 3.564,-3.564 2.106,0 3.726,1.62 3.726,3.564 0,2.106 -1.62,3.726 -3.726,3.726 -1.944,0 -3.564,-1.62 -3.564,-3.726 z M -16.2,81 c 0,-1.944 1.62,-3.564 3.564,-3.564 2.106,0 3.726,1.62 3.726,3.564 0,2.106 -1.62,3.726 -3.726,3.726 -1.944,0 -3.564,-1.62 -3.564,-3.726 z m 64.8,0 c 0,-1.944 1.62,-3.564 3.564,-3.564 2.106,0 3.726,1.62 3.726,3.564 0,2.106 -1.62,3.726 -3.726,3.726 C 50.22,84.726 48.6,83.106 48.6,81 Z M 0,97.2 c 0,-1.944 1.62,-3.564 3.564,-3.564 2.106,0 3.726,1.62 3.726,3.564 0,2.106 -1.62,3.726 -3.726,3.726 C 1.62,100.926 0,99.306 0,97.2 Z m 16.2,0 c 0,-1.944 1.62,-3.564 3.564,-3.564 2.106,0 3.726,1.62 3.726,3.564 0,2.106 -1.62,3.726 -3.726,3.726 -1.944,0 -3.564,-1.62 -3.564,-3.726 z m 16.2,0 c 0,-1.944 1.62,-3.564 3.564,-3.564 2.106,0 3.726,1.62 3.726,3.564 0,2.106 -1.62,3.726 -3.726,3.726 -1.944,0 -3.564,-1.62 -3.564,-3.726 z"
         style="fill:#00f7fa;stroke:#00fcff;stroke-width:4;stroke-linecap:butt;stroke-linejoin:miter;stroke-miterlimit:4;stroke-dasharray:none;stroke-opacity:1;fill-opacity:1"
         id="path11682"
         inkscape:connector-curvature="0" /></g><g
       id="g11684"
       transform="matrix(1.3333333,0,0,-1.3333333,1215.2653,137.34243)"
       style="fill:#00f7fa;fill-opacity:1"><path
         d="M 0,0 C 0,-1.944 1.62,-3.564 3.564,-3.564 5.67,-3.564 7.29,-1.944 7.29,0 7.29,2.106 5.67,3.726 3.564,3.726 1.62,3.726 0,2.106 0,0 Z m 0,16.2 c 0,-1.944 1.62,-3.564 3.564,-3.564 2.106,0 3.726,1.62 3.726,3.564 0,2.106 -1.62,3.726 -3.726,3.726 C 1.62,19.926 0,18.306 0,16.2 Z m 0,16.2 c 0,-1.944 1.62,-3.564 3.564,-3.564 2.106,0 3.726,1.62 3.726,3.564 0,2.106 -1.62,3.726 -3.726,3.726 C 1.62,36.126 0,34.506 0,32.4 Z m 16.2,0 c 0,-1.944 1.62,-3.564 3.564,-3.564 2.106,0 3.726,1.62 3.726,3.564 0,2.106 -1.62,3.726 -3.726,3.726 -1.944,0 -3.564,-1.62 -3.564,-3.726 z m 16.2,0 c 0,-1.944 1.62,-3.564 3.564,-3.564 2.106,0 3.726,1.62 3.726,3.564 0,2.106 -1.62,3.726 -3.726,3.726 -1.944,0 -3.564,-1.62 -3.564,-3.726 z m 16.2,0 c 0,-1.944 1.62,-3.564 3.564,-3.564 2.106,0 3.726,1.62 3.726,3.564 0,2.106 -1.62,3.726 -3.726,3.726 -1.944,0 -3.564,-1.62 -3.564,-3.726 z M 0,48.6 c 0,-1.944 1.62,-3.564 3.564,-3.564 2.106,0 3.726,1.62 3.726,3.564 0,2.106 -1.62,3.726 -3.726,3.726 C 1.62,52.326 0,50.706 0,48.6 Z m 64.8,0 c 0,-1.944 1.62,-3.564 3.564,-3.564 2.106,0 3.726,1.62 3.726,3.564 0,2.106 -1.62,3.726 -3.726,3.726 -1.944,0 -3.564,-1.62 -3.564,-3.726 z M 0,64.8 c 0,-1.944 1.62,-3.564 3.564,-3.564 2.106,0 3.726,1.62 3.726,3.564 0,2.106 -1.62,3.726 -3.726,3.726 C 1.62,68.526 0,66.906 0,64.8 Z m 64.8,0 c 0,-1.944 1.62,-3.564 3.564,-3.564 2.106,0 3.726,1.62 3.726,3.564 0,2.106 -1.62,3.726 -3.726,3.726 -1.944,0 -3.564,-1.62 -3.564,-3.726 z M 0,81 c 0,-1.944 1.62,-3.564 3.564,-3.564 2.106,0 3.726,1.62 3.726,3.564 0,2.106 -1.62,3.726 -3.726,3.726 C 1.62,84.726 0,83.106 0,81 Z m 64.8,0 c 0,-1.944 1.62,-3.564 3.564,-3.564 2.106,0 3.726,1.62 3.726,3.564 0,2.106 -1.62,3.726 -3.726,3.726 C 66.42,84.726 64.8,83.106 64.8,81 Z M 0,97.2 c 0,-1.944 1.62,-3.564 3.564,-3.564 2.106,0 3.726,1.62 3.726,3.564 0,2.106 -1.62,3.726 -3.726,3.726 C 1.62,100.926 0,99.306 0,97.2 Z m 16.2,0 c 0,-1.944 1.62,-3.564 3.564,-3.564 2.106,0 3.726,1.62 3.726,3.564 0,2.106 -1.62,3.726 -3.726,3.726 -1.944,0 -3.564,-1.62 -3.564,-3.726 z m 16.2,0 c 0,-1.944 1.62,-3.564 3.564,-3.564 2.106,0 3.726,1.62 3.726,3.564 0,2.106 -1.62,3.726 -3.726,3.726 -1.944,0 -3.564,-1.62 -3.564,-3.726 z m 16.2,0 c 0,-1.944 1.62,-3.564 3.564,-3.564 2.106,0 3.726,1.62 3.726,3.564 0,2.106 -1.62,3.726 -3.726,3.726 -1.944,0 -3.564,-1.62 -3.564,-3.726 z"
         style="fill:#00f7fa;stroke:#00fcff;stroke-width:4;stroke-linecap:butt;stroke-linejoin:miter;stroke-miterlimit:4;stroke-dasharray:none;stroke-opacity:1;fill-opacity:1"
         id="path11686"
         inkscape:connector-curvature="0" /></g></g></svg>