<?xml version="1.0" encoding="UTF-8" standalone="no"?>
<svg
   xmlns:dc="http://purl.org/dc/elements/1.1/"
   xmlns:cc="http://creativecommons.org/ns#"
   xmlns:rdf="http://www.w3.org/1999/02/22-rdf-syntax-ns#"
   xmlns:svg="http://www.w3.org/2000/svg"
   xmlns="http://www.w3.org/2000/svg"
   xmlns:sodipodi="http://sodipodi.sourceforge.net/DTD/sodipodi-0.dtd"
   xmlns:inkscape="http://www.inkscape.org/namespaces/inkscape"
   id="logo"
   version="1.1"
   viewBox="0 0 211 111"
   sodipodi:docname="logo.svg"
   inkscape:version="0.92.2 5c3e80d, 2017-08-06">
  <metadata
     id="metadata4163">
    <rdf:RDF>
      <cc:Work
         rdf:about="">
        <dc:format>image/svg+xml</dc:format>
        <dc:type
           rdf:resource="http://purl.org/dc/dcmitype/StillImage" />
      </cc:Work>
    </rdf:RDF>
  </metadata>
  <defs
     id="defs4161" />
  <sodipodi:namedview
     pagecolor="#ffffff"
     bordercolor="#666666"
     borderopacity="1"
     objecttolerance="10"
     gridtolerance="10"
     guidetolerance="10"
     inkscape:pageopacity="0"
     inkscape:pageshadow="2"
     inkscape:window-width="1680"
     inkscape:window-height="959"
     id="namedview4159"
     showgrid="false"
     inkscape:zoom="0.76777251"
     inkscape:cx="191.25784"
     inkscape:cy="147.35437"
     inkscape:window-x="-2"
     inkscape:window-y="0"
     inkscape:window-maximized="0"
     inkscape:current-layer="layer6" />
  <g
     transform="matrix(1.3333 0 0 -1.3333 -35.839 123.04)"
     id="g4156" />
  <g
     inkscape:groupmode="layer"
     id="layer6"
     inkscape:label="logo"
     style="display:inline">
    <g
       transform="matrix(1.3333,0,0,-1.3333,25.915456,31.104965)"
       id="g4126">
      <path
         d="m 0,0 h -9.719 c -4.681,0 -9.719,-3.345 -9.719,-10.691 v -21.382 c 0,-1.61 1.305,-2.916 2.916,-2.916 1.61,0 2.915,1.306 2.915,2.916 v 21.382 c 0,4.509 2.976,4.86 3.888,4.86 H 0 c 1.61,0 2.916,1.305 2.916,2.915 C 2.916,-1.305 1.61,0 0,0"
         id="path4124"
         inkscape:connector-curvature="0"
         style="fill:#ffffff" />
    </g>
    <g
       transform="matrix(1.3333,0,0,-1.3333,76.454193,28.51303)"
       id="g4130">
      <path
         d="m 0,0 c -10.182,0 -18.466,-8.284 -18.466,-18.466 0,-10.182 8.284,-18.466 18.466,-18.466 10.182,0 18.466,8.284 18.466,18.466 C 18.466,-8.284 10.182,0 0,0 m 0,-31.101 c -6.967,0 -12.635,5.668 -12.635,12.635 0,6.967 5.668,12.635 12.635,12.635 6.967,0 12.635,-5.668 12.635,-12.635 0,-6.967 -5.668,-12.635 -12.635,-12.635"
         id="path4128"
         inkscape:connector-curvature="0"
         style="fill:#ffffff" />
    </g>
    <g
       transform="matrix(1.3333,0,0,-1.3333,130.87683,28.51303)"
       id="g4134">
      <path
         d="m 0,0 c -10.182,0 -18.466,-8.284 -18.466,-18.466 0,-10.182 8.284,-18.466 18.466,-18.466 10.182,0 18.466,8.284 18.466,18.466 C 18.466,-8.284 10.182,0 0,0 m 0,-31.101 c -6.967,0 -12.635,5.668 -12.635,12.635 0,6.967 5.668,12.635 12.635,12.635 6.967,0 12.635,-5.668 12.635,-12.635 0,-6.967 -5.668,-12.635 -12.635,-12.635"
         id="path4132"
         inkscape:connector-curvature="0"
         style="fill:#ffffff" />
    </g>
    <g
       transform="matrix(1.3333,0,0,-1.3333,185.30214,28.51303)"
       id="g4138">
      <path
         d="m 0,0 c -10.164,0 -18.466,-8.302 -18.466,-18.466 v -39.848 c 0,-1.611 1.305,-2.916 2.916,-2.916 1.61,0 2.915,1.305 2.915,2.916 0,14.578 17.43,21.002 22.559,24.291 5.129,3.288 8.542,9.04 8.542,15.557 C 18.466,-8.302 10.164,0 0,0 m 0,-31.101 c -7.013,0 -12.635,5.622 -12.635,12.635 0,7.012 5.622,12.635 12.635,12.635 7.013,0 12.635,-5.623 12.635,-12.635 0,-7.013 -5.622,-12.635 -12.635,-12.635"
         id="path4136"
         inkscape:connector-curvature="0"
         style="fill:#ffffff" />
    </g>
    <g
       transform="matrix(1.3333,0,0,-1.3333,47.35092,69.989326)"
       id="g4142">
      <path
         d="M 0,0 -0.462,0.007 C -1.794,0.072 -2.47,1.054 -2.47,2.923 v 40.82 c 0,6.418 -5.231,8.747 -8.747,8.747 -1.61,0 -2.916,-1.305 -2.916,-2.915 0,-1.61 1.306,-2.916 2.916,-2.916 0.877,0 2.916,-0.284 2.916,-2.916 V 2.923 c 0,-6.417 4.649,-8.747 7.775,-8.747 l 0.105,0.008 C 1.185,-5.932 2.581,-4.724 2.697,-3.119 2.814,-1.512 1.606,-0.116 0,0"
         id="path4140"
         inkscape:connector-curvature="0"
         style="fill:#ffffff" />
    </g>
    <g
       transform="matrix(1.3333,0,0,-1.3333,185.30214,44.063308)"
       id="g4146">
      <path
         d="m 0,0 c 3.757,0 6.803,-3.046 6.803,-6.803 0,-3.758 -3.046,-6.804 -6.803,-6.804 -3.758,0 -6.803,3.046 -6.803,6.804 C -6.803,-3.046 -3.758,0 0,0"
         id="path4144"
         inkscape:connector-curvature="0"
         style="fill:#ffffff" />
    </g>
    <g
       transform="matrix(1.3333,0,0,-1.3333,185.12881,59.608253)"
       id="g4150">
      <path
         d="M 0,0 C 2.726,0 4.943,2.217 4.943,4.943 4.943,7.668 2.726,9.885 0,9.885 -2.726,9.885 -4.943,7.668 -4.943,4.943 -4.943,2.217 -2.726,0 0,0"
         id="path4148"
         inkscape:connector-curvature="0"
         style="fill:#00fcff" />
    </g>
    <g
       transform="matrix(1.3333,0,0,-1.3333,185.12881,59.608253)"
       id="g4154">
      <path
         d="M 0,0 C 2.726,0 4.943,2.217 4.943,4.943 4.943,7.668 2.726,9.885 0,9.885 -2.726,9.885 -4.943,7.668 -4.943,4.943 -4.943,2.217 -2.726,0 0,0 Z"
         id="path4152"
         inkscape:connector-curvature="0"
         style="fill:none;stroke:#00fcff;stroke-width:4.5" />
    </g>
  </g>
</svg>
