<?xml version="1.0" encoding="UTF-8" standalone="no"?>
<!-- Created with Inkscape (http://www.inkscape.org/) -->

<svg
   xmlns:dc="http://purl.org/dc/elements/1.1/"
   xmlns:cc="http://creativecommons.org/ns#"
   xmlns:rdf="http://www.w3.org/1999/02/22-rdf-syntax-ns#"
   xmlns:svg="http://www.w3.org/2000/svg"
   xmlns="http://www.w3.org/2000/svg"
   xmlns:sodipodi="http://sodipodi.sourceforge.net/DTD/sodipodi-0.dtd"
   xmlns:inkscape="http://www.inkscape.org/namespaces/inkscape"
   version="1.1"
   id="svg1010"
   xml:space="preserve"
   width="1487.9327"
   height="118.85867"
   viewBox="0 0 1487.9328 118.85864"
   sodipodi:docname="theraceison.svg"
   inkscape:version="0.92.2 5c3e80d, 2017-08-06"><metadata
     id="metadata1016"><rdf:RDF><cc:Work
         rdf:about=""><dc:format>image/svg+xml</dc:format><dc:type
           rdf:resource="http://purl.org/dc/dcmitype/StillImage" /><dc:title /></cc:Work></rdf:RDF></metadata><defs
     id="defs1014"><clipPath
       clipPathUnits="userSpaceOnUse"
       id="clipPath1026"><path
         d="M 0,0 H 1366 V 768 H 0 Z"
         id="path1024"
         inkscape:connector-curvature="0" /></clipPath><clipPath
       clipPathUnits="userSpaceOnUse"
       id="clipPath1040"><path
         d="M 0,0 H 1366 V 768 H 0 Z"
         id="path1038"
         inkscape:connector-curvature="0" /></clipPath><clipPath
       clipPathUnits="userSpaceOnUse"
       id="clipPath1096"><path
         d="M 0,0 H 1366 V 768 H 0 Z"
         id="path1094"
         inkscape:connector-curvature="0" /></clipPath><clipPath
       clipPathUnits="userSpaceOnUse"
       id="clipPath1164"><path
         d="M 0,0 H 1366 V 768 H 0 Z"
         id="path1162"
         inkscape:connector-curvature="0" /></clipPath><clipPath
       clipPathUnits="userSpaceOnUse"
       id="clipPath1188"><path
         d="m 1058,697 h 18.11 V 668.047 H 1058 Z"
         id="path1186"
         inkscape:connector-curvature="0" /></clipPath><clipPath
       clipPathUnits="userSpaceOnUse"
       id="clipPath1192"><path
         d="m 1059,674.471 h 16.105 v 16.106 H 1059 Z"
         id="path1190"
         inkscape:connector-curvature="0" /></clipPath><clipPath
       clipPathUnits="userSpaceOnUse"
       id="clipPath1214"><path
         d="m 1097.98,689.012 h 20.04 v -14.024 h -20.04 z"
         id="path1212"
         inkscape:connector-curvature="0" /></clipPath><clipPath
       clipPathUnits="userSpaceOnUse"
       id="clipPath1232"><path
         d="m 1138,695 h 15.69 V 670.09 H 1138 Z"
         id="path1230"
         inkscape:connector-curvature="0" /></clipPath><clipPath
       clipPathUnits="userSpaceOnUse"
       id="clipPath1236"><path
         d="m 1139,674.581 h 13.69 v 13.69 H 1139 Z"
         id="path1234"
         inkscape:connector-curvature="0" /></clipPath></defs><sodipodi:namedview
     pagecolor="#ffffff"
     bordercolor="#666666"
     borderopacity="1"
     objecttolerance="10"
     gridtolerance="10"
     guidetolerance="10"
     inkscape:pageopacity="0"
     inkscape:pageshadow="2"
     inkscape:window-width="1680"
     inkscape:window-height="960"
     id="namedview1012"
     showgrid="false"
     inkscape:zoom="0.66764278"
     inkscape:cx="776.34434"
     inkscape:cy="-82.388703"
     inkscape:window-x="-3"
     inkscape:window-y="3"
     inkscape:window-maximized="0"
     inkscape:current-layer="g1018" /><g
     id="g1018"
     inkscape:groupmode="layer"
     inkscape:label="the race is on"
     transform="matrix(1.3333333,0,0,-1.3333333,-56.034932,653.33505)"><g
       id="g1034"
       style="fill:#ffffff;fill-opacity:0.1372549"
       transform="translate(-30,33)"><g
         id="g1036"
         clip-path="url(#clipPath1040)"
         style="fill:#ffffff;fill-opacity:0.1372549"><g
           id="g1042"
           transform="translate(100.0482,371.8293)"
           style="fill:#ffffff;fill-opacity:1"><path
             d="M 0,0 C 0,-1.621 1.351,-2.972 2.972,-2.972 4.729,-2.972 6.08,-1.621 6.08,0 6.08,1.756 4.729,3.107 2.972,3.107 1.351,3.107 0,1.756 0,0 Z m 0,13.511 c 0,-1.622 1.351,-2.973 2.972,-2.973 1.757,0 3.108,1.351 3.108,2.973 0,1.756 -1.351,3.107 -3.108,3.107 C 1.351,16.618 0,15.267 0,13.511 Z m 0,13.511 c 0,-1.622 1.351,-2.973 2.972,-2.973 1.757,0 3.108,1.351 3.108,2.973 0,1.756 -1.351,3.107 -3.108,3.107 C 1.351,30.129 0,28.778 0,27.022 Z m 0,13.51 c 0,-1.621 1.351,-2.972 2.972,-2.972 1.757,0 3.108,1.351 3.108,2.972 0,1.757 -1.351,3.108 -3.108,3.108 C 1.351,43.64 0,42.289 0,40.532 Z m 0,13.511 c 0,-1.621 1.351,-2.972 2.972,-2.972 1.757,0 3.108,1.351 3.108,2.972 0,1.757 -1.351,3.108 -3.108,3.108 C 1.351,57.151 0,55.8 0,54.043 Z m 0,13.511 c 0,-1.621 1.351,-2.972 2.972,-2.972 1.757,0 3.108,1.351 3.108,2.972 0,1.756 -1.351,3.107 -3.108,3.107 C 1.351,70.661 0,69.31 0,67.554 Z m -27.022,13.511 c 0,-1.621 1.351,-2.973 2.973,-2.973 1.756,0 3.107,1.352 3.107,2.973 0,1.756 -1.351,3.107 -3.107,3.107 -1.622,0 -2.973,-1.351 -2.973,-3.107 z m 13.511,0 c 0,-1.621 1.351,-2.973 2.973,-2.973 1.756,0 3.107,1.352 3.107,2.973 0,1.756 -1.351,3.107 -3.107,3.107 -1.622,0 -2.973,-1.351 -2.973,-3.107 z m 13.511,0 c 0,-1.621 1.351,-2.973 2.972,-2.973 1.757,0 3.108,1.352 3.108,2.973 0,1.756 -1.351,3.107 -3.108,3.107 C 1.351,84.172 0,82.821 0,81.065 Z m 13.511,0 c 0,-1.621 1.351,-2.973 2.972,-2.973 1.757,0 3.108,1.352 3.108,2.973 0,1.756 -1.351,3.107 -3.108,3.107 -1.621,0 -2.972,-1.351 -2.972,-3.107 z m 13.511,0 c 0,-1.621 1.351,-2.973 2.972,-2.973 1.756,0 3.107,1.352 3.107,2.973 0,1.756 -1.351,3.107 -3.107,3.107 -1.621,0 -2.972,-1.351 -2.972,-3.107 z"
             style="fill:#ffffff;fill-opacity:1;stroke:#ffffff;stroke-width:2;stroke-linecap:butt;stroke-linejoin:miter;stroke-miterlimit:18.01399994;stroke-dasharray:none;stroke-opacity:1"
             id="path1044"
             inkscape:connector-curvature="0" /></g><g
           id="g1046"
           transform="translate(154.0902,371.8293)"
           style="fill:#ffffff;fill-opacity:1"><path
             d="M 0,0 C 0,-1.621 1.351,-2.972 2.972,-2.972 4.729,-2.972 6.08,-1.621 6.08,0 6.08,1.756 4.729,3.107 2.972,3.107 1.351,3.107 0,1.756 0,0 Z m 54.043,0 c 0,-1.621 1.351,-2.972 2.973,-2.972 1.756,0 3.107,1.351 3.107,2.972 0,1.756 -1.351,3.107 -3.107,3.107 C 55.394,3.107 54.043,1.756 54.043,0 Z M 0,13.511 c 0,-1.622 1.351,-2.973 2.972,-2.973 1.757,0 3.108,1.351 3.108,2.973 0,1.756 -1.351,3.107 -3.108,3.107 C 1.351,16.618 0,15.267 0,13.511 Z m 54.043,0 c 0,-1.622 1.351,-2.973 2.973,-2.973 1.756,0 3.107,1.351 3.107,2.973 0,1.756 -1.351,3.107 -3.107,3.107 -1.622,0 -2.973,-1.351 -2.973,-3.107 z M 0,27.022 c 0,-1.622 1.351,-2.973 2.972,-2.973 1.757,0 3.108,1.351 3.108,2.973 0,1.756 -1.351,3.107 -3.108,3.107 C 1.351,30.129 0,28.778 0,27.022 Z m 54.043,0 c 0,-1.622 1.351,-2.973 2.973,-2.973 1.756,0 3.107,1.351 3.107,2.973 0,1.756 -1.351,3.107 -3.107,3.107 -1.622,0 -2.973,-1.351 -2.973,-3.107 z M 0,40.532 c 0,-1.621 1.351,-2.972 2.972,-2.972 1.757,0 3.108,1.351 3.108,2.972 0,1.757 -1.351,3.108 -3.108,3.108 C 1.351,43.64 0,42.289 0,40.532 Z m 54.043,0 c 0,-1.621 1.351,-2.972 2.973,-2.972 1.756,0 3.107,1.351 3.107,2.972 0,1.757 -1.351,3.108 -3.107,3.108 -1.622,0 -2.973,-1.351 -2.973,-3.108 z M 0,54.043 c 0,-1.621 1.351,-2.972 2.972,-2.972 1.757,0 3.108,1.351 3.108,2.972 0,1.757 -1.351,3.108 -3.108,3.108 C 1.351,57.151 0,55.8 0,54.043 Z m 54.043,0 c 0,-1.621 1.351,-2.972 2.973,-2.972 1.756,0 3.107,1.351 3.107,2.972 0,1.757 -1.351,3.108 -3.107,3.108 -1.622,0 -2.973,-1.351 -2.973,-3.108 z M 0,67.554 c 0,-1.621 1.351,-2.972 2.972,-2.972 1.757,0 3.108,1.351 3.108,2.972 0,1.756 -1.351,3.107 -3.108,3.107 C 1.351,70.661 0,69.31 0,67.554 Z m 54.043,0 c 0,-1.621 1.351,-2.972 2.973,-2.972 1.756,0 3.107,1.351 3.107,2.972 0,1.756 -1.351,3.107 -3.107,3.107 -1.622,0 -2.973,-1.351 -2.973,-3.107 z M 0,81.065 c 0,-1.621 1.351,-2.973 2.972,-2.973 1.757,0 3.108,1.352 3.108,2.973 0,1.756 -1.351,3.107 -3.108,3.107 C 1.351,84.172 0,82.821 0,81.065 Z m 54.043,0 c 0,-1.621 1.351,-2.973 2.973,-2.973 1.756,0 3.107,1.352 3.107,2.973 0,1.756 -1.351,3.107 -3.107,3.107 -1.622,0 -2.973,-1.351 -2.973,-3.107 z M 13.511,40.532 c 0,-1.621 1.351,-2.972 2.972,-2.972 1.757,0 3.108,1.351 3.108,2.972 0,1.757 -1.351,3.108 -3.108,3.108 -1.621,0 -2.972,-1.351 -2.972,-3.108 z m 13.511,0 c 0,-1.621 1.351,-2.972 2.972,-2.972 1.756,0 3.107,1.351 3.107,2.972 0,1.757 -1.351,3.108 -3.107,3.108 -1.621,0 -2.972,-1.351 -2.972,-3.108 z m 13.51,0 c 0,-1.621 1.351,-2.972 2.973,-2.972 1.756,0 3.107,1.351 3.107,2.972 0,1.757 -1.351,3.108 -3.107,3.108 -1.622,0 -2.973,-1.351 -2.973,-3.108 z"
             style="fill:#ffffff;fill-opacity:1;stroke:#ffffff;stroke-width:2;stroke-linecap:butt;stroke-linejoin:miter;stroke-miterlimit:18.01399994;stroke-dasharray:none;stroke-opacity:1"
             id="path1048"
             inkscape:connector-curvature="0" /></g><g
           id="g1050"
           transform="translate(235.1537,371.8293)"
           style="fill:#ffffff;fill-opacity:1"><path
             d="M 0,0 C 0,-1.621 1.351,-2.972 2.972,-2.972 4.729,-2.972 6.08,-1.621 6.08,0 6.08,1.756 4.729,3.107 2.972,3.107 1.351,3.107 0,1.756 0,0 Z m 13.511,0 c 0,-1.621 1.351,-2.972 2.972,-2.972 1.757,0 3.108,1.351 3.108,2.972 0,1.756 -1.351,3.107 -3.108,3.107 -1.621,0 -2.972,-1.351 -2.972,-3.107 z m 13.511,0 c 0,-1.621 1.351,-2.972 2.972,-2.972 1.756,0 3.107,1.351 3.107,2.972 0,1.756 -1.351,3.107 -3.107,3.107 -1.621,0 -2.972,-1.351 -2.972,-3.107 z m 13.51,0 c 0,-1.621 1.351,-2.972 2.973,-2.972 1.756,0 3.107,1.351 3.107,2.972 0,1.756 -1.351,3.107 -3.107,3.107 -1.622,0 -2.973,-1.351 -2.973,-3.107 z m 13.511,0 c 0,-1.621 1.351,-2.972 2.973,-2.972 1.756,0 3.107,1.351 3.107,2.972 0,1.756 -1.351,3.107 -3.107,3.107 C 55.394,3.107 54.043,1.756 54.043,0 Z M 0,13.511 c 0,-1.622 1.351,-2.973 2.972,-2.973 1.757,0 3.108,1.351 3.108,2.973 0,1.756 -1.351,3.107 -3.108,3.107 C 1.351,16.618 0,15.267 0,13.511 Z m 0,13.511 c 0,-1.622 1.351,-2.973 2.972,-2.973 1.757,0 3.108,1.351 3.108,2.973 0,1.756 -1.351,3.107 -3.108,3.107 C 1.351,30.129 0,28.778 0,27.022 Z m 0,13.51 c 0,-1.621 1.351,-2.972 2.972,-2.972 1.757,0 3.108,1.351 3.108,2.972 0,1.757 -1.351,3.108 -3.108,3.108 C 1.351,43.64 0,42.289 0,40.532 Z m 13.511,0 c 0,-1.621 1.351,-2.972 2.972,-2.972 1.757,0 3.108,1.351 3.108,2.972 0,1.757 -1.351,3.108 -3.108,3.108 -1.621,0 -2.972,-1.351 -2.972,-3.108 z m 13.511,0 c 0,-1.621 1.351,-2.972 2.972,-2.972 1.756,0 3.107,1.351 3.107,2.972 0,1.757 -1.351,3.108 -3.107,3.108 -1.621,0 -2.972,-1.351 -2.972,-3.108 z m 13.51,0 c 0,-1.621 1.351,-2.972 2.973,-2.972 1.756,0 3.107,1.351 3.107,2.972 0,1.757 -1.351,3.108 -3.107,3.108 -1.622,0 -2.973,-1.351 -2.973,-3.108 z M 0,54.043 c 0,-1.621 1.351,-2.972 2.972,-2.972 1.757,0 3.108,1.351 3.108,2.972 0,1.757 -1.351,3.108 -3.108,3.108 C 1.351,57.151 0,55.8 0,54.043 Z m 0,13.511 c 0,-1.621 1.351,-2.972 2.972,-2.972 1.757,0 3.108,1.351 3.108,2.972 0,1.756 -1.351,3.107 -3.108,3.107 C 1.351,70.661 0,69.31 0,67.554 Z m 0,13.511 c 0,-1.621 1.351,-2.973 2.972,-2.973 1.757,0 3.108,1.352 3.108,2.973 0,1.756 -1.351,3.107 -3.108,3.107 C 1.351,84.172 0,82.821 0,81.065 Z m 13.511,0 c 0,-1.621 1.351,-2.973 2.972,-2.973 1.757,0 3.108,1.352 3.108,2.973 0,1.756 -1.351,3.107 -3.108,3.107 -1.621,0 -2.972,-1.351 -2.972,-3.107 z m 13.511,0 c 0,-1.621 1.351,-2.973 2.972,-2.973 1.756,0 3.107,1.352 3.107,2.973 0,1.756 -1.351,3.107 -3.107,3.107 -1.621,0 -2.972,-1.351 -2.972,-3.107 z m 13.51,0 c 0,-1.621 1.351,-2.973 2.973,-2.973 1.756,0 3.107,1.352 3.107,2.973 0,1.756 -1.351,3.107 -3.107,3.107 -1.622,0 -2.973,-1.351 -2.973,-3.107 z m 13.511,0 c 0,-1.621 1.351,-2.973 2.973,-2.973 1.756,0 3.107,1.352 3.107,2.973 0,1.756 -1.351,3.107 -3.107,3.107 -1.622,0 -2.973,-1.351 -2.973,-3.107 z"
             style="fill:#ffffff;fill-opacity:1;stroke:#ffffff;stroke-width:2;stroke-linecap:butt;stroke-linejoin:miter;stroke-miterlimit:18.01399994;stroke-dasharray:none;stroke-opacity:1"
             id="path1052"
             inkscape:connector-curvature="0" /></g><g
           id="g1054"
           transform="translate(397.2808,371.8293)"
           style="fill:#ffffff;fill-opacity:1"><path
             d="M 0,0 C 0,-1.621 1.351,-2.972 2.972,-2.972 4.729,-2.972 6.08,-1.621 6.08,0 6.08,1.756 4.729,3.107 2.972,3.107 1.351,3.107 0,1.756 0,0 Z m 54.043,0 c 0,-1.621 1.351,-2.972 2.973,-2.972 1.756,0 3.107,1.351 3.107,2.972 0,1.756 -1.351,3.107 -3.107,3.107 C 55.394,3.107 54.043,1.756 54.043,0 Z M 0,13.511 c 0,-1.622 1.351,-2.973 2.972,-2.973 1.757,0 3.108,1.351 3.108,2.973 0,1.756 -1.351,3.107 -3.108,3.107 C 1.351,16.618 0,15.267 0,13.511 Z m 54.043,0 c 0,-1.622 1.351,-2.973 2.973,-2.973 1.756,0 3.107,1.351 3.107,2.973 0,1.756 -1.351,3.107 -3.107,3.107 -1.622,0 -2.973,-1.351 -2.973,-3.107 z M 0,27.022 c 0,-1.622 1.351,-2.973 2.972,-2.973 1.757,0 3.108,1.351 3.108,2.973 0,1.756 -1.351,3.107 -3.108,3.107 C 1.351,30.129 0,28.778 0,27.022 Z m 40.532,0 c 0,-1.622 1.351,-2.973 2.973,-2.973 1.756,0 3.107,1.351 3.107,2.973 0,1.756 -1.351,3.107 -3.107,3.107 -1.622,0 -2.973,-1.351 -2.973,-3.107 z M 0,40.532 c 0,-1.621 1.351,-2.972 2.972,-2.972 1.757,0 3.108,1.351 3.108,2.972 0,1.757 -1.351,3.108 -3.108,3.108 C 1.351,43.64 0,42.289 0,40.532 Z m 13.511,0 c 0,-1.621 1.351,-2.972 2.972,-2.972 1.757,0 3.108,1.351 3.108,2.972 0,1.757 -1.351,3.108 -3.108,3.108 -1.621,0 -2.972,-1.351 -2.972,-3.108 z m 13.511,0 c 0,-1.621 1.351,-2.972 2.972,-2.972 1.756,0 3.107,1.351 3.107,2.972 0,1.757 -1.351,3.108 -3.107,3.108 -1.621,0 -2.972,-1.351 -2.972,-3.108 z m 13.51,0 c 0,-1.621 1.351,-2.972 2.973,-2.972 1.756,0 3.107,1.351 3.107,2.972 0,1.757 -1.351,3.108 -3.107,3.108 -1.622,0 -2.973,-1.351 -2.973,-3.108 z M 0,54.043 c 0,-1.621 1.351,-2.972 2.972,-2.972 1.757,0 3.108,1.351 3.108,2.972 0,1.757 -1.351,3.108 -3.108,3.108 C 1.351,57.151 0,55.8 0,54.043 Z m 54.043,0 c 0,-1.621 1.351,-2.972 2.973,-2.972 1.756,0 3.107,1.351 3.107,2.972 0,1.757 -1.351,3.108 -3.107,3.108 -1.622,0 -2.973,-1.351 -2.973,-3.108 z M 0,67.554 c 0,-1.621 1.351,-2.972 2.972,-2.972 1.757,0 3.108,1.351 3.108,2.972 0,1.756 -1.351,3.107 -3.108,3.107 C 1.351,70.661 0,69.31 0,67.554 Z m 54.043,0 c 0,-1.621 1.351,-2.972 2.973,-2.972 1.756,0 3.107,1.351 3.107,2.972 0,1.756 -1.351,3.107 -3.107,3.107 -1.622,0 -2.973,-1.351 -2.973,-3.107 z M 0,81.065 c 0,-1.621 1.351,-2.973 2.972,-2.973 1.757,0 3.108,1.352 3.108,2.973 0,1.756 -1.351,3.107 -3.108,3.107 C 1.351,84.172 0,82.821 0,81.065 Z m 13.511,0 c 0,-1.621 1.351,-2.973 2.972,-2.973 1.757,0 3.108,1.352 3.108,2.973 0,1.756 -1.351,3.107 -3.108,3.107 -1.621,0 -2.972,-1.351 -2.972,-3.107 z m 13.511,0 c 0,-1.621 1.351,-2.973 2.972,-2.973 1.756,0 3.107,1.352 3.107,2.973 0,1.756 -1.351,3.107 -3.107,3.107 -1.621,0 -2.972,-1.351 -2.972,-3.107 z m 13.51,0 c 0,-1.621 1.351,-2.973 2.973,-2.973 1.756,0 3.107,1.352 3.107,2.973 0,1.756 -1.351,3.107 -3.107,3.107 -1.622,0 -2.973,-1.351 -2.973,-3.107 z"
             style="fill:#ffffff;fill-opacity:1;stroke:#ffffff;stroke-width:2;stroke-linecap:butt;stroke-linejoin:miter;stroke-miterlimit:18.01399994;stroke-dasharray:none;stroke-opacity:1"
             id="path1056"
             inkscape:connector-curvature="0" /></g><g
           id="g1058"
           transform="translate(478.3444,371.8293)"
           style="fill:#ffffff;fill-opacity:1"><path
             d="M 0,0 C 0,-1.621 1.351,-2.972 2.972,-2.972 4.729,-2.972 6.08,-1.621 6.08,0 6.08,1.756 4.729,3.107 2.972,3.107 1.351,3.107 0,1.756 0,0 Z m 54.043,0 c 0,-1.621 1.351,-2.972 2.973,-2.972 1.756,0 3.107,1.351 3.107,2.972 0,1.756 -1.351,3.107 -3.107,3.107 C 55.394,3.107 54.043,1.756 54.043,0 Z M 0,13.511 c 0,-1.622 1.351,-2.973 2.972,-2.973 1.757,0 3.108,1.351 3.108,2.973 0,1.756 -1.351,3.107 -3.108,3.107 C 1.351,16.618 0,15.267 0,13.511 Z m 54.043,0 c 0,-1.622 1.351,-2.973 2.973,-2.973 1.756,0 3.107,1.351 3.107,2.973 0,1.756 -1.351,3.107 -3.107,3.107 -1.622,0 -2.973,-1.351 -2.973,-3.107 z M 0,27.022 c 0,-1.622 1.351,-2.973 2.972,-2.973 1.757,0 3.108,1.351 3.108,2.973 0,1.756 -1.351,3.107 -3.108,3.107 C 1.351,30.129 0,28.778 0,27.022 Z m 54.043,0 c 0,-1.622 1.351,-2.973 2.973,-2.973 1.756,0 3.107,1.351 3.107,2.973 0,1.756 -1.351,3.107 -3.107,3.107 -1.622,0 -2.973,-1.351 -2.973,-3.107 z M 0,40.532 c 0,-1.621 1.351,-2.972 2.972,-2.972 1.757,0 3.108,1.351 3.108,2.972 0,1.757 -1.351,3.108 -3.108,3.108 C 1.351,43.64 0,42.289 0,40.532 Z m 54.043,0 c 0,-1.621 1.351,-2.972 2.973,-2.972 1.756,0 3.107,1.351 3.107,2.972 0,1.757 -1.351,3.108 -3.107,3.108 -1.622,0 -2.973,-1.351 -2.973,-3.108 z M 0,54.043 c 0,-1.621 1.351,-2.972 2.972,-2.972 1.757,0 3.108,1.351 3.108,2.972 0,1.757 -1.351,3.108 -3.108,3.108 C 1.351,57.151 0,55.8 0,54.043 Z m 54.043,0 c 0,-1.621 1.351,-2.972 2.973,-2.972 1.756,0 3.107,1.351 3.107,2.972 0,1.757 -1.351,3.108 -3.107,3.108 -1.622,0 -2.973,-1.351 -2.973,-3.108 z M 0,67.554 c 0,-1.621 1.351,-2.972 2.972,-2.972 1.757,0 3.108,1.351 3.108,2.972 0,1.756 -1.351,3.107 -3.108,3.107 C 1.351,70.661 0,69.31 0,67.554 Z m 54.043,0 c 0,-1.621 1.351,-2.972 2.973,-2.972 1.756,0 3.107,1.351 3.107,2.972 0,1.756 -1.351,3.107 -3.107,3.107 -1.622,0 -2.973,-1.351 -2.973,-3.107 z M 13.511,81.065 c 0,-1.621 1.351,-2.973 2.972,-2.973 1.757,0 3.108,1.352 3.108,2.973 0,1.756 -1.351,3.107 -3.108,3.107 -1.621,0 -2.972,-1.351 -2.972,-3.107 z m 13.511,0 c 0,-1.621 1.351,-2.973 2.972,-2.973 1.756,0 3.107,1.352 3.107,2.973 0,1.756 -1.351,3.107 -3.107,3.107 -1.621,0 -2.972,-1.351 -2.972,-3.107 z m 13.51,0 c 0,-1.621 1.351,-2.973 2.973,-2.973 1.756,0 3.107,1.352 3.107,2.973 0,1.756 -1.351,3.107 -3.107,3.107 -1.622,0 -2.973,-1.351 -2.973,-3.107 z M 13.511,27.022 c 0,-1.622 1.351,-2.973 2.972,-2.973 1.757,0 3.108,1.351 3.108,2.973 0,1.756 -1.351,3.107 -3.108,3.107 -1.621,0 -2.972,-1.351 -2.972,-3.107 z m 13.511,0 c 0,-1.622 1.351,-2.973 2.972,-2.973 1.756,0 3.107,1.351 3.107,2.973 0,1.756 -1.351,3.107 -3.107,3.107 -1.621,0 -2.972,-1.351 -2.972,-3.107 z m 13.51,0 c 0,-1.622 1.351,-2.973 2.973,-2.973 1.756,0 3.107,1.351 3.107,2.973 0,1.756 -1.351,3.107 -3.107,3.107 -1.622,0 -2.973,-1.351 -2.973,-3.107 z"
             style="fill:#ffffff;fill-opacity:1;stroke:#ffffff;stroke-width:2;stroke-linecap:butt;stroke-linejoin:miter;stroke-miterlimit:18.01399994;stroke-dasharray:none;stroke-opacity:1"
             id="path1060"
             inkscape:connector-curvature="0" /></g><g
           id="g1062"
           transform="translate(572.9187,371.8293)"
           style="fill:#ffffff;fill-opacity:1"><path
             d="M 0,0 C 0,-1.621 1.351,-2.972 2.972,-2.972 4.729,-2.972 6.08,-1.621 6.08,0 6.08,1.756 4.729,3.107 2.972,3.107 1.351,3.107 0,1.756 0,0 Z m 13.511,0 c 0,-1.621 1.351,-2.972 2.972,-2.972 1.757,0 3.108,1.351 3.108,2.972 0,1.756 -1.351,3.107 -3.108,3.107 -1.621,0 -2.972,-1.351 -2.972,-3.107 z m 13.511,0 c 0,-1.621 1.351,-2.972 2.972,-2.972 1.756,0 3.108,1.351 3.108,2.972 0,1.756 -1.352,3.107 -3.108,3.107 -1.621,0 -2.972,-1.351 -2.972,-3.107 z m -40.533,13.511 c 0,-1.622 1.351,-2.973 2.973,-2.973 1.756,0 3.107,1.351 3.107,2.973 0,1.756 -1.351,3.107 -3.107,3.107 -1.622,0 -2.973,-1.351 -2.973,-3.107 z m 54.043,0 c 0,-1.622 1.352,-2.973 2.973,-2.973 1.756,0 3.107,1.351 3.107,2.973 0,1.756 -1.351,3.107 -3.107,3.107 -1.621,0 -2.973,-1.351 -2.973,-3.107 z m -54.043,13.511 c 0,-1.622 1.351,-2.973 2.973,-2.973 1.756,0 3.107,1.351 3.107,2.973 0,1.756 -1.351,3.107 -3.107,3.107 -1.622,0 -2.973,-1.351 -2.973,-3.107 z m 0,13.51 c 0,-1.621 1.351,-2.972 2.973,-2.972 1.756,0 3.107,1.351 3.107,2.972 0,1.757 -1.351,3.108 -3.107,3.108 -1.622,0 -2.973,-1.351 -2.973,-3.108 z m 0,13.511 c 0,-1.621 1.351,-2.972 2.973,-2.972 1.756,0 3.107,1.351 3.107,2.972 0,1.757 -1.351,3.108 -3.107,3.108 -1.622,0 -2.973,-1.351 -2.973,-3.108 z m 0,13.511 c 0,-1.621 1.351,-2.972 2.973,-2.972 1.756,0 3.107,1.351 3.107,2.972 0,1.756 -1.351,3.107 -3.107,3.107 -1.622,0 -2.973,-1.351 -2.973,-3.107 z m 54.043,0 c 0,-1.621 1.352,-2.972 2.973,-2.972 1.756,0 3.107,1.351 3.107,2.972 0,1.756 -1.351,3.107 -3.107,3.107 -1.621,0 -2.973,-1.351 -2.973,-3.107 z M 0,81.065 c 0,-1.621 1.351,-2.973 2.972,-2.973 1.757,0 3.108,1.352 3.108,2.973 0,1.756 -1.351,3.107 -3.108,3.107 C 1.351,84.172 0,82.821 0,81.065 Z m 13.511,0 c 0,-1.621 1.351,-2.973 2.972,-2.973 1.757,0 3.108,1.352 3.108,2.973 0,1.756 -1.351,3.107 -3.108,3.107 -1.621,0 -2.972,-1.351 -2.972,-3.107 z m 13.511,0 c 0,-1.621 1.351,-2.973 2.972,-2.973 1.756,0 3.108,1.352 3.108,2.973 0,1.756 -1.352,3.107 -3.108,3.107 -1.621,0 -2.972,-1.351 -2.972,-3.107 z"
             style="fill:#ffffff;fill-opacity:1;stroke:#ffffff;stroke-width:2;stroke-linecap:butt;stroke-linejoin:miter;stroke-miterlimit:18.01399994;stroke-dasharray:none;stroke-opacity:1"
             id="path1064"
             inkscape:connector-curvature="0" /></g><g
           id="g1066"
           transform="translate(640.4715,371.8293)"
           style="fill:#ffffff;fill-opacity:1"><path
             d="M 0,0 C 0,-1.621 1.351,-2.972 2.972,-2.972 4.729,-2.972 6.08,-1.621 6.08,0 6.08,1.756 4.729,3.107 2.972,3.107 1.351,3.107 0,1.756 0,0 Z m 13.511,0 c 0,-1.621 1.351,-2.972 2.972,-2.972 1.757,0 3.108,1.351 3.108,2.972 0,1.756 -1.351,3.107 -3.108,3.107 -1.621,0 -2.972,-1.351 -2.972,-3.107 z m 13.511,0 c 0,-1.621 1.351,-2.972 2.972,-2.972 1.756,0 3.108,1.351 3.108,2.972 0,1.756 -1.352,3.107 -3.108,3.107 -1.621,0 -2.972,-1.351 -2.972,-3.107 z m 13.51,0 c 0,-1.621 1.351,-2.972 2.973,-2.972 1.756,0 3.107,1.351 3.107,2.972 0,1.756 -1.351,3.107 -3.107,3.107 -1.622,0 -2.973,-1.351 -2.973,-3.107 z m 13.511,0 c 0,-1.621 1.351,-2.972 2.973,-2.972 1.756,0 3.107,1.351 3.107,2.972 0,1.756 -1.351,3.107 -3.107,3.107 C 55.394,3.107 54.043,1.756 54.043,0 Z M 0,13.511 c 0,-1.622 1.351,-2.973 2.972,-2.973 1.757,0 3.108,1.351 3.108,2.973 0,1.756 -1.351,3.107 -3.108,3.107 C 1.351,16.618 0,15.267 0,13.511 Z m 0,13.511 c 0,-1.622 1.351,-2.973 2.972,-2.973 1.757,0 3.108,1.351 3.108,2.973 0,1.756 -1.351,3.107 -3.108,3.107 C 1.351,30.129 0,28.778 0,27.022 Z m 0,13.51 c 0,-1.621 1.351,-2.972 2.972,-2.972 1.757,0 3.108,1.351 3.108,2.972 0,1.757 -1.351,3.108 -3.108,3.108 C 1.351,43.64 0,42.289 0,40.532 Z m 13.511,0 c 0,-1.621 1.351,-2.972 2.972,-2.972 1.757,0 3.108,1.351 3.108,2.972 0,1.757 -1.351,3.108 -3.108,3.108 -1.621,0 -2.972,-1.351 -2.972,-3.108 z m 13.511,0 c 0,-1.621 1.351,-2.972 2.972,-2.972 1.756,0 3.108,1.351 3.108,2.972 0,1.757 -1.352,3.108 -3.108,3.108 -1.621,0 -2.972,-1.351 -2.972,-3.108 z m 13.51,0 c 0,-1.621 1.351,-2.972 2.973,-2.972 1.756,0 3.107,1.351 3.107,2.972 0,1.757 -1.351,3.108 -3.107,3.108 -1.622,0 -2.973,-1.351 -2.973,-3.108 z M 0,54.043 c 0,-1.621 1.351,-2.972 2.972,-2.972 1.757,0 3.108,1.351 3.108,2.972 0,1.757 -1.351,3.108 -3.108,3.108 C 1.351,57.151 0,55.8 0,54.043 Z m 0,13.511 c 0,-1.621 1.351,-2.972 2.972,-2.972 1.757,0 3.108,1.351 3.108,2.972 0,1.756 -1.351,3.107 -3.108,3.107 C 1.351,70.661 0,69.31 0,67.554 Z m 0,13.511 c 0,-1.621 1.351,-2.973 2.972,-2.973 1.757,0 3.108,1.352 3.108,2.973 0,1.756 -1.351,3.107 -3.108,3.107 C 1.351,84.172 0,82.821 0,81.065 Z m 13.511,0 c 0,-1.621 1.351,-2.973 2.972,-2.973 1.757,0 3.108,1.352 3.108,2.973 0,1.756 -1.351,3.107 -3.108,3.107 -1.621,0 -2.972,-1.351 -2.972,-3.107 z m 13.511,0 c 0,-1.621 1.351,-2.973 2.972,-2.973 1.756,0 3.108,1.352 3.108,2.973 0,1.756 -1.352,3.107 -3.108,3.107 -1.621,0 -2.972,-1.351 -2.972,-3.107 z m 13.51,0 c 0,-1.621 1.351,-2.973 2.973,-2.973 1.756,0 3.107,1.352 3.107,2.973 0,1.756 -1.351,3.107 -3.107,3.107 -1.622,0 -2.973,-1.351 -2.973,-3.107 z m 13.511,0 c 0,-1.621 1.351,-2.973 2.973,-2.973 1.756,0 3.107,1.352 3.107,2.973 0,1.756 -1.351,3.107 -3.107,3.107 -1.622,0 -2.973,-1.351 -2.973,-3.107 z"
             style="fill:#ffffff;fill-opacity:1;stroke:#ffffff;stroke-width:2;stroke-linecap:butt;stroke-linejoin:miter;stroke-miterlimit:18.01399994;stroke-dasharray:none;stroke-opacity:1"
             id="path1068"
             inkscape:connector-curvature="0" /></g><g
           id="g1070"
           transform="translate(816.1094,371.8293)"
           style="fill:#ffffff;fill-opacity:1"><path
             d="M 0,0 C 0,-1.621 1.351,-2.972 2.972,-2.972 4.729,-2.972 6.08,-1.621 6.08,0 6.08,1.756 4.729,3.107 2.972,3.107 1.351,3.107 0,1.756 0,0 Z m 13.511,0 c 0,-1.621 1.351,-2.972 2.972,-2.972 1.757,0 3.108,1.351 3.108,2.972 0,1.756 -1.351,3.107 -3.108,3.107 -1.621,0 -2.972,-1.351 -2.972,-3.107 z m 13.511,0 c 0,-1.621 1.351,-2.972 2.972,-2.972 1.756,0 3.107,1.351 3.107,2.972 0,1.756 -1.351,3.107 -3.107,3.107 C 28.373,3.107 27.022,1.756 27.022,0 Z M 13.511,13.511 c 0,-1.622 1.351,-2.973 2.972,-2.973 1.757,0 3.108,1.351 3.108,2.973 0,1.756 -1.351,3.107 -3.108,3.107 -1.621,0 -2.972,-1.351 -2.972,-3.107 z m 0,13.511 c 0,-1.622 1.351,-2.973 2.972,-2.973 1.757,0 3.108,1.351 3.108,2.973 0,1.756 -1.351,3.107 -3.108,3.107 -1.621,0 -2.972,-1.351 -2.972,-3.107 z m 0,13.51 c 0,-1.621 1.351,-2.972 2.972,-2.972 1.757,0 3.108,1.351 3.108,2.972 0,1.757 -1.351,3.108 -3.108,3.108 -1.621,0 -2.972,-1.351 -2.972,-3.108 z m 0,13.511 c 0,-1.621 1.351,-2.972 2.972,-2.972 1.757,0 3.108,1.351 3.108,2.972 0,1.757 -1.351,3.108 -3.108,3.108 -1.621,0 -2.972,-1.351 -2.972,-3.108 z m 0,13.511 c 0,-1.621 1.351,-2.972 2.972,-2.972 1.757,0 3.108,1.351 3.108,2.972 0,1.756 -1.351,3.107 -3.108,3.107 -1.621,0 -2.972,-1.351 -2.972,-3.107 z M 0,81.065 c 0,-1.621 1.351,-2.973 2.972,-2.973 1.757,0 3.108,1.352 3.108,2.973 0,1.756 -1.351,3.107 -3.108,3.107 C 1.351,84.172 0,82.821 0,81.065 Z m 13.511,0 c 0,-1.621 1.351,-2.973 2.972,-2.973 1.757,0 3.108,1.352 3.108,2.973 0,1.756 -1.351,3.107 -3.108,3.107 -1.621,0 -2.972,-1.351 -2.972,-3.107 z m 13.511,0 c 0,-1.621 1.351,-2.973 2.972,-2.973 1.756,0 3.107,1.352 3.107,2.973 0,1.756 -1.351,3.107 -3.107,3.107 -1.621,0 -2.972,-1.351 -2.972,-3.107 z m -40.533,0 c 0,-1.621 1.351,-2.973 2.973,-2.973 1.756,0 3.107,1.352 3.107,2.973 0,1.756 -1.351,3.107 -3.107,3.107 -1.622,0 -2.973,-1.351 -2.973,-3.107 z m 0,-81.065 c 0,-1.621 1.351,-2.972 2.973,-2.972 1.756,0 3.107,1.351 3.107,2.972 0,1.756 -1.351,3.107 -3.107,3.107 -1.622,0 -2.973,-1.351 -2.973,-3.107 z m 54.043,0 c 0,-1.621 1.351,-2.972 2.973,-2.972 1.756,0 3.107,1.351 3.107,2.972 0,1.756 -1.351,3.107 -3.107,3.107 -1.622,0 -2.973,-1.351 -2.973,-3.107 z m 0,81.065 c 0,-1.621 1.351,-2.973 2.973,-2.973 1.756,0 3.107,1.352 3.107,2.973 0,1.756 -1.351,3.107 -3.107,3.107 -1.622,0 -2.973,-1.351 -2.973,-3.107 z"
             style="fill:#ffffff;fill-opacity:1;stroke:#ffffff;stroke-width:2;stroke-linecap:butt;stroke-linejoin:miter;stroke-miterlimit:18.01399994;stroke-dasharray:none;stroke-opacity:1"
             id="path1072"
             inkscape:connector-curvature="0" /></g><g
           id="g1074"
           transform="translate(883.6621,371.8293)"
           style="fill:#ffffff;fill-opacity:1"><path
             d="M 0,0 C 0,-1.621 1.351,-2.972 2.972,-2.972 4.729,-2.972 6.08,-1.621 6.08,0 6.08,1.756 4.729,3.107 2.972,3.107 1.351,3.107 0,1.756 0,0 Z m 13.511,0 c 0,-1.621 1.351,-2.972 2.972,-2.972 1.757,0 3.108,1.351 3.108,2.972 0,1.756 -1.351,3.107 -3.108,3.107 -1.621,0 -2.972,-1.351 -2.972,-3.107 z m 13.511,0 c 0,-1.621 1.351,-2.972 2.972,-2.972 1.756,0 3.107,1.351 3.107,2.972 0,1.756 -1.351,3.107 -3.107,3.107 -1.621,0 -2.972,-1.351 -2.972,-3.107 z m 13.51,0 c 0,-1.621 1.351,-2.972 2.973,-2.972 1.756,0 3.107,1.351 3.107,2.972 0,1.756 -1.351,3.107 -3.107,3.107 -1.622,0 -2.973,-1.351 -2.973,-3.107 z m 13.511,13.511 c 0,-1.622 1.351,-2.973 2.973,-2.973 1.756,0 3.107,1.351 3.107,2.973 0,1.756 -1.351,3.107 -3.107,3.107 -1.622,0 -2.973,-1.351 -2.973,-3.107 z m 0,13.511 c 0,-1.622 1.351,-2.973 2.973,-2.973 1.756,0 3.107,1.351 3.107,2.973 0,1.756 -1.351,3.107 -3.107,3.107 -1.622,0 -2.973,-1.351 -2.973,-3.107 z m -40.532,13.51 c 0,-1.621 1.351,-2.972 2.972,-2.972 1.757,0 3.108,1.351 3.108,2.972 0,1.757 -1.351,3.108 -3.108,3.108 -1.621,0 -2.972,-1.351 -2.972,-3.108 z m 13.511,0 c 0,-1.621 1.351,-2.972 2.972,-2.972 1.756,0 3.107,1.351 3.107,2.972 0,1.757 -1.351,3.108 -3.107,3.108 -1.621,0 -2.972,-1.351 -2.972,-3.108 z m 13.51,0 c 0,-1.621 1.351,-2.972 2.973,-2.972 1.756,0 3.107,1.351 3.107,2.972 0,1.757 -1.351,3.108 -3.107,3.108 -1.622,0 -2.973,-1.351 -2.973,-3.108 z M 0,54.043 c 0,-1.621 1.351,-2.972 2.972,-2.972 1.757,0 3.108,1.351 3.108,2.972 0,1.757 -1.351,3.108 -3.108,3.108 C 1.351,57.151 0,55.8 0,54.043 Z m 0,13.511 c 0,-1.621 1.351,-2.972 2.972,-2.972 1.757,0 3.108,1.351 3.108,2.972 0,1.756 -1.351,3.107 -3.108,3.107 C 1.351,70.661 0,69.31 0,67.554 Z m 13.511,13.511 c 0,-1.621 1.351,-2.973 2.972,-2.973 1.757,0 3.108,1.352 3.108,2.973 0,1.756 -1.351,3.107 -3.108,3.107 -1.621,0 -2.972,-1.351 -2.972,-3.107 z m 13.511,0 c 0,-1.621 1.351,-2.973 2.972,-2.973 1.756,0 3.107,1.352 3.107,2.973 0,1.756 -1.351,3.107 -3.107,3.107 -1.621,0 -2.972,-1.351 -2.972,-3.107 z m 13.51,0 c 0,-1.621 1.351,-2.973 2.973,-2.973 1.756,0 3.107,1.352 3.107,2.973 0,1.756 -1.351,3.107 -3.107,3.107 -1.622,0 -2.973,-1.351 -2.973,-3.107 z m 13.511,0 c 0,-1.621 1.351,-2.973 2.973,-2.973 1.756,0 3.107,1.352 3.107,2.973 0,1.756 -1.351,3.107 -3.107,3.107 -1.622,0 -2.973,-1.351 -2.973,-3.107 z"
             style="fill:#ffffff;fill-opacity:1;stroke:#ffffff;stroke-width:2;stroke-linecap:butt;stroke-linejoin:miter;stroke-miterlimit:18.01399994;stroke-dasharray:none;stroke-opacity:1"
             id="path1076"
             inkscape:connector-curvature="0" /></g><g
           id="g1078"
           transform="translate(1059.3,371.8293)"
           style="fill:#ffffff;fill-opacity:1"><path
             d="M 0,0 C 0,-1.621 1.351,-2.972 2.972,-2.972 4.729,-2.972 6.08,-1.621 6.08,0 6.08,1.756 4.729,3.107 2.972,3.107 1.351,3.107 0,1.756 0,0 Z m 13.511,0 c 0,-1.621 1.351,-2.972 2.972,-2.972 1.757,0 3.108,1.351 3.108,2.972 0,1.756 -1.351,3.107 -3.108,3.107 -1.621,0 -2.972,-1.351 -2.972,-3.107 z m 13.511,0 c 0,-1.621 1.351,-2.972 2.972,-2.972 1.756,0 3.107,1.351 3.107,2.972 0,1.756 -1.351,3.107 -3.107,3.107 -1.621,0 -2.972,-1.351 -2.972,-3.107 z m -40.533,13.511 c 0,-1.622 1.351,-2.973 2.973,-2.973 1.756,0 3.107,1.351 3.107,2.973 0,1.756 -1.351,3.107 -3.107,3.107 -1.622,0 -2.973,-1.351 -2.973,-3.107 z m 54.043,0 c 0,-1.622 1.352,-2.973 2.973,-2.973 1.756,0 3.107,1.351 3.107,2.973 0,1.756 -1.351,3.107 -3.107,3.107 -1.621,0 -2.973,-1.351 -2.973,-3.107 z m -54.043,13.511 c 0,-1.622 1.351,-2.973 2.973,-2.973 1.756,0 3.107,1.351 3.107,2.973 0,1.756 -1.351,3.107 -3.107,3.107 -1.622,0 -2.973,-1.351 -2.973,-3.107 z m 54.043,0 c 0,-1.622 1.352,-2.973 2.973,-2.973 1.756,0 3.107,1.351 3.107,2.973 0,1.756 -1.351,3.107 -3.107,3.107 -1.621,0 -2.973,-1.351 -2.973,-3.107 z m -54.043,13.51 c 0,-1.621 1.351,-2.972 2.973,-2.972 1.756,0 3.107,1.351 3.107,2.972 0,1.757 -1.351,3.108 -3.107,3.108 -1.622,0 -2.973,-1.351 -2.973,-3.108 z m 54.043,0 c 0,-1.621 1.352,-2.972 2.973,-2.972 1.756,0 3.107,1.351 3.107,2.972 0,1.757 -1.351,3.108 -3.107,3.108 -1.621,0 -2.973,-1.351 -2.973,-3.108 z m -54.043,13.511 c 0,-1.621 1.351,-2.972 2.973,-2.972 1.756,0 3.107,1.351 3.107,2.972 0,1.757 -1.351,3.108 -3.107,3.108 -1.622,0 -2.973,-1.351 -2.973,-3.108 z m 54.043,0 c 0,-1.621 1.352,-2.972 2.973,-2.972 1.756,0 3.107,1.351 3.107,2.972 0,1.757 -1.351,3.108 -3.107,3.108 -1.621,0 -2.973,-1.351 -2.973,-3.108 z m -54.043,13.511 c 0,-1.621 1.351,-2.972 2.973,-2.972 1.756,0 3.107,1.351 3.107,2.972 0,1.756 -1.351,3.107 -3.107,3.107 -1.622,0 -2.973,-1.351 -2.973,-3.107 z m 54.043,0 c 0,-1.621 1.352,-2.972 2.973,-2.972 1.756,0 3.107,1.351 3.107,2.972 0,1.756 -1.351,3.107 -3.107,3.107 -1.621,0 -2.973,-1.351 -2.973,-3.107 z M 0,81.065 c 0,-1.621 1.351,-2.973 2.972,-2.973 1.757,0 3.108,1.352 3.108,2.973 0,1.756 -1.351,3.107 -3.108,3.107 C 1.351,84.172 0,82.821 0,81.065 Z m 13.511,0 c 0,-1.621 1.351,-2.973 2.972,-2.973 1.757,0 3.108,1.352 3.108,2.973 0,1.756 -1.351,3.107 -3.108,3.107 -1.621,0 -2.972,-1.351 -2.972,-3.107 z m 13.511,0 c 0,-1.621 1.351,-2.973 2.972,-2.973 1.756,0 3.107,1.352 3.107,2.973 0,1.756 -1.351,3.107 -3.107,3.107 -1.621,0 -2.972,-1.351 -2.972,-3.107 z"
             style="fill:#ffffff;fill-opacity:1;stroke:#ffffff;stroke-width:2;stroke-linecap:butt;stroke-linejoin:miter;stroke-miterlimit:18.01399994;stroke-dasharray:none;stroke-opacity:1"
             id="path1080"
             inkscape:connector-curvature="0" /></g><g
           id="g1082"
           transform="translate(1126.8528,371.8293)"
           style="fill:#ffffff;fill-opacity:1"><path
             d="M 0,0 C 0,-1.621 1.351,-2.972 2.972,-2.972 4.729,-2.972 6.08,-1.621 6.08,0 6.08,1.756 4.729,3.107 2.972,3.107 1.351,3.107 0,1.756 0,0 Z m 54.043,0 c 0,-1.621 1.351,-2.972 2.973,-2.972 1.756,0 3.107,1.351 3.107,2.972 0,1.756 -1.351,3.107 -3.107,3.107 C 55.394,3.107 54.043,1.756 54.043,0 Z M 0,13.511 c 0,-1.622 1.351,-2.973 2.972,-2.973 1.757,0 3.108,1.351 3.108,2.973 0,1.756 -1.351,3.107 -3.108,3.107 C 1.351,16.618 0,15.267 0,13.511 Z m 54.043,0 c 0,-1.622 1.351,-2.973 2.973,-2.973 1.756,0 3.107,1.351 3.107,2.973 0,1.756 -1.351,3.107 -3.107,3.107 -1.622,0 -2.973,-1.351 -2.973,-3.107 z M 0,27.022 c 0,-1.622 1.351,-2.973 2.972,-2.973 1.757,0 3.108,1.351 3.108,2.973 0,1.756 -1.351,3.107 -3.108,3.107 C 1.351,30.129 0,28.778 0,27.022 Z m 40.532,0 c 0,-1.622 1.352,-2.973 2.973,-2.973 1.756,0 3.107,1.351 3.107,2.973 0,1.756 -1.351,3.107 -3.107,3.107 -1.621,0 -2.973,-1.351 -2.973,-3.107 z m 13.511,0 c 0,-1.622 1.351,-2.973 2.973,-2.973 1.756,0 3.107,1.351 3.107,2.973 0,1.756 -1.351,3.107 -3.107,3.107 -1.622,0 -2.973,-1.351 -2.973,-3.107 z M 0,40.532 c 0,-1.621 1.351,-2.972 2.972,-2.972 1.757,0 3.108,1.351 3.108,2.972 0,1.757 -1.351,3.108 -3.108,3.108 C 1.351,43.64 0,42.289 0,40.532 Z m 27.022,0 c 0,-1.621 1.351,-2.972 2.972,-2.972 1.756,0 3.107,1.351 3.107,2.972 0,1.757 -1.351,3.108 -3.107,3.108 -1.621,0 -2.972,-1.351 -2.972,-3.108 z m 27.021,0 c 0,-1.621 1.351,-2.972 2.973,-2.972 1.756,0 3.107,1.351 3.107,2.972 0,1.757 -1.351,3.108 -3.107,3.108 -1.622,0 -2.973,-1.351 -2.973,-3.108 z M 0,54.043 c 0,-1.621 1.351,-2.972 2.972,-2.972 1.757,0 3.108,1.351 3.108,2.972 0,1.757 -1.351,3.108 -3.108,3.108 C 1.351,57.151 0,55.8 0,54.043 Z m 27.022,0 c 0,-1.621 1.351,-2.972 2.972,-2.972 1.756,0 3.107,1.351 3.107,2.972 0,1.757 -1.351,3.108 -3.107,3.108 -1.621,0 -2.972,-1.351 -2.972,-3.108 z m 27.021,0 c 0,-1.621 1.351,-2.972 2.973,-2.972 1.756,0 3.107,1.351 3.107,2.972 0,1.757 -1.351,3.108 -3.107,3.108 -1.622,0 -2.973,-1.351 -2.973,-3.108 z M 0,67.554 c 0,-1.621 1.351,-2.972 2.972,-2.972 1.757,0 3.108,1.351 3.108,2.972 0,1.756 -1.351,3.107 -3.108,3.107 C 1.351,70.661 0,69.31 0,67.554 Z m 13.511,0 c 0,-1.621 1.351,-2.972 2.972,-2.972 1.757,0 3.108,1.351 3.108,2.972 0,1.756 -1.351,3.107 -3.108,3.107 -1.621,0 -2.972,-1.351 -2.972,-3.107 z m 40.532,0 c 0,-1.621 1.351,-2.972 2.973,-2.972 1.756,0 3.107,1.351 3.107,2.972 0,1.756 -1.351,3.107 -3.107,3.107 -1.622,0 -2.973,-1.351 -2.973,-3.107 z M 0,81.065 c 0,-1.621 1.351,-2.973 2.972,-2.973 1.757,0 3.108,1.352 3.108,2.973 0,1.756 -1.351,3.107 -3.108,3.107 C 1.351,84.172 0,82.821 0,81.065 Z m 54.043,0 c 0,-1.621 1.351,-2.973 2.973,-2.973 1.756,0 3.107,1.352 3.107,2.973 0,1.756 -1.351,3.107 -3.107,3.107 -1.622,0 -2.973,-1.351 -2.973,-3.107 z"
             style="fill:#ffffff;fill-opacity:1;stroke:#ffffff;stroke-width:2;stroke-linecap:butt;stroke-linejoin:miter;stroke-miterlimit:18.01399994;stroke-dasharray:none;stroke-opacity:1"
             id="path1084"
             inkscape:connector-curvature="0" /></g></g></g></g></svg>